<svg xmlns:xlink="http://www.w3.org/1999/xlink" xmlns="http://www.w3.org/2000/svg" width="152.09" height="115.41" preserveAspectRatio="none" fill="rgba(215, 206, 206, 0.4)"><defs><symbol id="a" viewBox="0 0 152.09 115.41"><path d="m58.1 0-.05 9Q38.31 19.22 29.91 30.33a40.08 40.08 0 0 0-8.48 24.45c0 5.12.66 8.68 2.1 10.68s3 3 4.82 3A26.62 26.62 0 0 0 36 66.88a29.07 29.07 0 0 1 9-1.62 22.13 22.13 0 0 1 16.16 6.94 22.51 22.51 0 0 1 6.74 16.54 24.7 24.7 0 0 1-2.23 10.15 24.06 24.06 0 0 1-6.22 8.3 32.69 32.69 0 0 1-9.37 5.61 29.81 29.81 0 0 1-11.35 2.1 31.72 31.72 0 0 1-14.31-3.59A42.77 42.77 0 0 1 12 101.73 47.08 47.08 0 0 1 0 69.66a64.62 64.62 0 0 1 4-22 68.78 68.78 0 0 1 11.26-19.75 81.41 81.41 0 0 1 18.27-16.39A94.2 94.2 0 0 1 58.1 0ZM142 1.18l-.06 8.33A156.52 156.52 0 0 0 123 21.73a59.08 59.08 0 0 0-11.23 11.1A33.66 33.66 0 0 0 106.19 44a49.26 49.26 0 0 0-1.58 12.66q0 6.66 2.44 9.68t5.15 3a23 23 0 0 0 7.51-1.79 27.81 27.81 0 0 1 9.85-1.77 22.5 22.5 0 0 1 15.63 6.6 21.16 21.16 0 0 1 6.9 16.21 23.12 23.12 0 0 1-2.4 10.15 29.75 29.75 0 0 1-6.39 8.63 29.41 29.41 0 0 1-9.37 5.95 30.67 30.67 0 0 1-11.68 2.09A32 32 0 0 1 108.1 112a39.23 39.23 0 0 1-12.1-9.42 49.65 49.65 0 0 1-8.58-14 45.67 45.67 0 0 1-3.23-17.69 68.52 68.52 0 0 1 4-22.65 67.76 67.76 0 0 1 11.29-20.1A76.75 76.75 0 0 1 117.55 12 90.21 90.21 0 0 1 142 1.18Z"/></symbol></defs><use xlink:href="#a"/></svg>