<svg width="334" height="46" fill="none" xmlns="http://www.w3.org/2000/svg"><g filter="url(#a)"><path d="M329.614 20.975c.211-.124.316-.031.316.278 0 .074-.105.198-.316.371-1.769 1.546-3.185 2.684-4.249 3.414-1.546 1.064-2.752 1.596-3.618 1.596-.755 0-1.181-.39-1.28-1.169-.161-1.212.822-2.808 2.95-4.787l1.039-.946a259.89 259.89 0 0 1 2.653-2.32c.817-.692 1.225-1.2 1.225-1.521 0-.074-.043-.124-.13-.149-.445-.185-1.763.396-3.952 1.744-3.587 2.202-6.538 4.775-8.851 7.72l-1.243 1.595c-.359 0-.513-.371-.464-1.113a1.31 1.31 0 0 1 .112-.371c.89-1.732 2.523-3.847 4.898-6.346 1.348-1.423 2.517-2.45 3.507-3.08.631-.408 1.515-.613 2.653-.613-1.546 1.064-3.321 2.71-5.325 4.936a60.78 60.78 0 0 1 4.268-3.08c2.102-1.36 3.624-2.041 4.564-2.041.322 0 .612.105.872.315.272.198.396.446.371.743-.049.94-.983 2.257-2.802 3.952a126.463 126.463 0 0 0-2.393 2.208c-1.856 1.72-2.783 2.857-2.783 3.414 0 .26.191.39.575.39 1.064 0 3.457-1.664 7.181-4.992l.222-.148Z" fill="#000"/></g><g filter="url(#b)"><path d="M318.147 15.204c.31.173.477.402.501.687.075.804-.587 1.688-1.985 2.653-1.138.792-2.431 1.274-3.878 1.447-.433.05-.736.013-.909-.11-.557.506-1.138 1.1-1.744 1.78-1.522 1.695-2.282 2.95-2.282 3.767 0 .458.327.686.983.686.742 0 1.806-.445 3.191-1.335a30.065 30.065 0 0 0 4.825-3.841c.086-.075.191-.136.315-.186.099-.05.186-.025.26.074a.187.187 0 0 1 0 .223c-.507.742-2.041 2.01-4.602 3.804-1.793 1.274-3.34 1.855-4.638 1.744-1.287-.1-1.856-.78-1.707-2.041 0-.483.191-1.107.575-1.874.866-1.72 2.461-3.402 4.787-5.047 1.769-1.237 3.364-2.047 4.787-2.43.68-.174 1.187-.174 1.521 0Zm-.074.65c0-.235-.099-.353-.297-.353-.334 0-1.057.408-2.171 1.225-1.373.99-2.542 1.967-3.506 2.931a.994.994 0 0 0 .278.038c1.039 0 2.344-.613 3.915-1.837 1.187-.928 1.781-1.596 1.781-2.004Zm3.433-2.208c0 .21-.074.315-.223.315-.334 0-.717-.798-1.15-2.393-.396.222-.736.395-1.021.52-1.496.79-2.801 1.385-3.915 1.78-.346.136-.519.124-.519-.037-.161-.123-.124-.247.111-.37 1.546-.916 2.431-1.448 2.653-1.597l3.489-2.17c.136 0 .216.049.241.148.222 1.657.334 2.925.334 3.804Z" fill="#000"/></g><g filter="url(#c)"><path d="M311.95 15.241c0 .05-.025.087-.074.112-.433.235-1.014.692-1.744 1.373-.309.272-.841.804-1.596 1.596a1237.552 1237.552 0 0 0-6.531 6.957c-2.004 2.103-3.383 3.507-4.138 4.212-5.702 5.171-11.269 7.744-16.699 7.72a9.81 9.81 0 0 1-2.579-.353c-2.709-.68-4.28-2.072-4.713-4.175-.124-.606-.062-.934.185-.984.062-.024.167.18.316.613.124.705.39 1.31.798 1.818 1.212 1.546 3.148 2.356 5.807 2.43 3.402.1 7.125-1.329 11.17-4.285 1.955-1.423 4.15-3.34 6.587-5.752 1.794-1.77 3.018-3.087 3.674-3.953a24.226 24.226 0 0 1-2.189 1.912c-1.831 1.385-3.124 2.078-3.878 2.078-.891 0-1.336-.402-1.336-1.206 0-1.522 1.367-3.513 4.1-5.975 1.769-1.596 3.291-2.746 4.565-3.451.68-.384 1.453-.538 2.319-.464-1.855 1.521-3.463 2.944-4.824 4.268-3.266 3.166-4.899 5.127-4.899 5.881 0 .236.124.353.372.353.606 0 1.719-.637 3.339-1.911.718-.557 2.351-2.047 4.899-4.472 2.053-1.954 3.717-3.302 4.991-4.045.433-.247 1.027-.37 1.781-.37.173 0 .272.024.297.073Z" fill="#000"/></g><g filter="url(#d)"><path d="M299.667 15.204c-6.185 5.802-9.277 9.296-9.277 10.484a.3.3 0 0 0 .111.24c.161.075.39.044.687-.092 1.088-.445 2.659-1.57 4.712-3.377l1.782-1.558.241-.149c.074-.05.148-.037.223.037.074.074.098.149.074.223a.815.815 0 0 1-.149.241c-.89.878-2.109 1.917-3.655 3.117-1.917 1.51-3.235 2.24-3.952 2.19-.804-.05-1.243-.39-1.318-1.02-.074-.656.155-1.43.687-2.32-.334.334-.779.717-1.336 1.15-1.905 1.46-3.272 2.19-4.101 2.19-.89 0-1.335-.39-1.335-1.17 0-1.496 1.391-3.512 4.174-6.048 1.782-1.62 3.278-2.77 4.491-3.451.531-.31 1.317-.464 2.356-.464-3.723 3.018-6.408 5.579-8.053 7.682-1.039 1.31-1.558 2.17-1.558 2.579 0 .185.099.278.297.278.123 0 .29-.043.501-.13 1.335-.73 2.325-1.336 2.968-1.818l.872-.798a65.971 65.971 0 0 0 2.041-1.93l.687-.686c2.585-2.586 4.509-4.262 5.77-5.029.557-.321 1.244-.445 2.06-.37Z" fill="#000"/></g><g filter="url(#e)"><path d="M287.885 1.678a6.196 6.196 0 0 1-1.262.297c-1.373.334-2.678 1.082-3.915 2.245 2.152 1.93 3.315 4.373 3.488 7.329.062.866.025 1.614-.111 2.245-.928 4.614-3.321 8.084-7.181 10.41-3.364 2.053-7.558 3.08-12.58 3.08-1.942 0-4.335-.205-7.18-.613-3.34-.47-5.301-.748-5.882-.835 1.546 3.835 4.824 5.752 9.834 5.752 1.546 0 2.925-.396 4.137-1.187l.39-.297c.124-.1.21-.124.26-.075.074.05.111.112.111.186 0 .272-.39.6-1.169.983-1.187.582-2.492.873-3.915.873-5.146 0-8.566-2.01-10.261-6.03a14.848 14.848 0 0 1-3.228.686 2.507 2.507 0 0 1-.909-.093c-.433-.099-.637-.272-.613-.52 0-.383.229-.661.687-.835a6.053 6.053 0 0 1 2.653-.39c.309.026.668.075 1.076.15-.408-1.287-.612-2.74-.612-4.361 0-5.579 2.369-10.292 7.107-14.139 4.304-3.5 9.104-5.25 14.398-5.25 1.188 0 2.214.067 3.08.203 2.251.322 4.187 1.064 5.808 2.227 1.781-1.36 3.556-2.103 5.325-2.227.247.075.402.136.464.186Zm-4.231 13.897c.767-1.694 1.095-3.426.984-5.195-.149-2.338-.947-4.274-2.394-5.808-1.484 1.287-3.129 2.994-4.935 5.122a4558.279 4558.279 0 0 1-4.565 5.436c-5.566 6.482-11.43 9.927-17.59 10.335.458.099 1.268.235 2.431.408 3.402.507 6.327.761 8.776.761 2.969 0 5.684-.557 8.146-1.67 4.094-1.868 7.143-4.997 9.147-9.389ZM281.65 4.071c-1.806-1.422-4.366-2.133-7.681-2.133-5.121 0-9.871 1.837-14.25 5.51-4.862 4.082-7.292 8.591-7.292 13.527 0 1.57.204 2.956.612 4.156 3.055-.111 5.876-.94 8.461-2.486 2.338-1.386 5.226-3.94 8.665-7.663 4.886-5.295 8.715-8.931 11.485-10.91Z" fill="#000"/></g><g filter="url(#f)"><path d="m247.343 6.242-.037.075c-.792.173-1.794.717-3.006 1.632a94.539 94.539 0 0 0-2.858 2.32c-3.55 2.98-6.574 5.882-9.073 8.702 1.039-.817 2.289-1.614 3.748-2.394 1.856-.99 3.229-1.484 4.119-1.484.322 0 .625.099.91.297.296.185.432.427.408.723-.05.842-.705 1.893-1.967 3.155-.285.284-.804.78-1.559 1.484-1.595 1.497-2.61 2.486-3.043 2.969-.915 1.039-1.373 1.695-1.373 1.967 0 .26.143.39.427.39.247 0 .612-.118 1.095-.353 1.497-.705 3.476-2.159 5.937-4.36a1.47 1.47 0 0 0 .26-.186c.074-.062.148-.037.223.074.099.149.049.322-.149.52-3.476 3.24-6.061 4.861-7.756 4.861-.729 0-1.144-.39-1.243-1.169-.161-1.212.823-2.808 2.95-4.787l1.04-.946c1.311-1.175 2.195-1.949 2.653-2.32.816-.692 1.224-1.187 1.224-1.484 0-.149-.129-.223-.389-.223-.631 0-1.744.427-3.34 1.28-1.93 1.04-3.501 2.066-4.713 3.08-1.794 1.522-3.705 3.767-5.733 6.736-.384 0-.576-.359-.576-1.076 0-.173.025-.31.075-.408a26.14 26.14 0 0 1 4.861-6.699l.278-.26c3.724-3.723 5.734-5.727 6.031-6.011 2.251-2.053 3.847-3.408 4.787-4.064 2.004-1.36 3.933-2.04 5.789-2.04Z" fill="#000"/></g><g filter="url(#g)"><path d="M228.714 20.975c.21-.124.315-.031.315.278 0 .074-.105.198-.315.371-1.769 1.546-3.185 2.684-4.249 3.414-1.546 1.064-2.752 1.596-3.618 1.596-.755 0-1.182-.39-1.281-1.169-.16-1.212.823-2.808 2.951-4.787l1.039-.946a249.11 249.11 0 0 1 2.653-2.32c.816-.692 1.225-1.2 1.225-1.521 0-.074-.044-.124-.13-.149-.446-.185-1.763.396-3.952 1.744-3.588 2.202-6.538 4.775-8.851 7.72l-1.243 1.595c-.359 0-.514-.371-.464-1.113.025-.149.062-.272.111-.371.891-1.732 2.524-3.847 4.899-6.346 1.348-1.423 2.517-2.45 3.507-3.08.63-.408 1.515-.613 2.653-.613-1.546 1.064-3.321 2.71-5.325 4.936a60.77 60.77 0 0 1 4.267-3.08c2.103-1.36 3.625-2.041 4.565-2.041.321 0 .612.105.872.315.272.198.396.446.371.743-.05.94-.984 2.257-2.802 3.952a120.23 120.23 0 0 0-2.393 2.208c-1.856 1.72-2.784 2.857-2.784 3.414 0 .26.192.39.576.39 1.063 0 3.457-1.664 7.18-4.992l.223-.148Z" fill="#000"/></g><g filter="url(#h)"><path d="M217.952 15.427a112.799 112.799 0 0 0-4.564 4.379c-3.142 3.191-4.713 5.14-4.713 5.845 0 .123.049.216.148.278.458.198 1.689-.476 3.693-2.023.915-.705 2.121-1.731 3.618-3.08a.85.85 0 0 1 .222-.148c.099-.025.174.012.223.111.05.124.05.21 0 .26a46.61 46.61 0 0 1-2.004 1.8c-2.993 2.474-4.923 3.71-5.789 3.71-.903 0-1.354-.414-1.354-1.242 0-.557.253-1.219.76-1.986-2.56 2.153-4.385 3.229-5.473 3.229-.866 0-1.299-.415-1.299-1.243 0-.866.408-1.93 1.225-3.192.927-1.497 2.356-2.931 4.286-4.305 1.929-1.385 3.729-2.27 5.399-2.653.581-.123 1.052-.148 1.41-.074.532.124.767.464.705 1.02-.024.409-.414.978-1.169 1.707 1.163-.964 1.874-1.521 2.134-1.67.878-.556 1.726-.797 2.542-.723Zm-4.026.575c0-.247-.155-.371-.464-.371-1.163 0-3.606 1.757-7.329 5.27a25.296 25.296 0 0 0-1.596 1.67c-1.039 1.224-1.657 2.152-1.855 2.783-.112.321-.05.538.185.65.173.073.501-.02.984-.28 2.585-1.335 5.572-3.957 8.961-7.866.743-.83 1.114-1.448 1.114-1.856Zm.018-2.134.39-.167c1.051-.284 1.849-.934 2.394-1.948.395-.705.834-.903 1.317-.594.482.297.519.743.111 1.336-.309.433-.872.823-1.688 1.17-.804.333-1.485.488-2.041.463-.149.025-.254.019-.316-.018-.148-.1-.204-.18-.167-.242Z" fill="#000"/></g><g filter="url(#i)"><path d="m209.825 6.242-.037.075c-.792.173-1.794.717-3.006 1.632a94.801 94.801 0 0 0-2.857 2.32c-3.55 2.98-6.575 5.882-9.073 8.702 1.039-.817 2.288-1.614 3.748-2.394 1.855-.99 3.228-1.484 4.119-1.484.321 0 .624.099.909.297.297.185.433.427.408.723-.049.842-.705 1.893-1.967 3.155-.284.284-.804.78-1.558 1.484-1.596 1.497-2.61 2.486-3.043 2.969-.916 1.039-1.373 1.695-1.373 1.967 0 .26.142.39.426.39.248 0 .613-.118 1.095-.353 1.497-.705 3.476-2.159 5.938-4.36.123-.075.21-.137.259-.186.075-.062.149-.037.223.074.099.149.05.322-.148.52-3.476 3.24-6.062 4.861-7.756 4.861-.73 0-1.144-.39-1.243-1.169-.161-1.212.822-2.808 2.95-4.787l1.039-.946c1.311-1.175 2.196-1.949 2.653-2.32.817-.692 1.225-1.187 1.225-1.484 0-.149-.13-.223-.39-.223-.631 0-1.744.427-3.34 1.28-1.929 1.04-3.5 2.066-4.713 3.08-1.793 1.522-3.704 3.767-5.733 6.736-.383 0-.575-.359-.575-1.076a.93.93 0 0 1 .074-.408 26.163 26.163 0 0 1 4.861-6.699l.279-.26c3.723-3.723 5.733-5.727 6.03-6.011 2.251-2.053 3.847-3.408 4.787-4.064 2.004-1.36 3.934-2.04 5.789-2.04Z" fill="#000"/></g><g filter="url(#j)"><path d="M210.456 4.832c.05.297.025.476-.074.538.025 0-.062-.105-.26-.315-.482-.606-1.293-.91-2.431-.91-2.028 0-4.663.81-7.904 2.431l-.315.112a128.485 128.485 0 0 0-2.431 1.261l-3.266 1.745c-.63.358-1.063.6-1.298.723-1.967 1.138-3.297 1.973-3.99 2.505a29.564 29.564 0 0 0-.519 1.447c-1.25 3.526-1.899 6.464-1.948 8.814-.025 1.744.383 2.616 1.224 2.616.458 0 1.014-.241 1.67-.724l.148-.074c.025-.025.062-.012.112.037.074.087.049.192-.074.316-.94 1.039-1.918 1.558-2.932 1.558-.346 0-.699-.08-1.058-.24-.754-.323-1.131-1.195-1.131-2.617 0-.247.012-.526.037-.835.272-3.365 1.144-6.618 2.616-9.76l.909-.686c1.324-.99 2.845-1.967 4.564-2.932l4.491-2.505c1.62-.915 2.938-1.602 3.952-2.06 3.216-1.46 5.585-2.189 7.106-2.189 1.361 0 2.295.581 2.802 1.744Zm-13.638.186c-.024-.05-.216-.112-.575-.186a.609.609 0 0 0-.185-.037.417.417 0 0 1-.186.037c-.507.074-1.095.303-1.763.687-2.634 1.546-6.036 4.7-10.205 9.463-3.933 4.453-7.279 7.706-10.038 9.76-4.329 3.19-8.609 4.787-12.84 4.787-1.83 0-3.265-.402-4.304-1.206-1.163-.891-1.744-2.22-1.744-3.99 0-2.103.797-4.261 2.393-6.475 2.301-3.167 5.468-5.56 9.5-7.181-.334-.099-.55-.44-.649-1.02a3.987 3.987 0 0 1 0-1.336 7.043 7.043 0 0 1 1.632-3.266c2.437-2.759 6.049-4.138 10.836-4.138 4.614 0 9.476.786 14.584 2.357 2.511.754 3.693 1.336 3.544 1.744Zm-1.484-.538a20.034 20.034 0 0 0-2.022-.557l-2.765-.65c-3.501-.816-7.441-1.18-11.819-1.094-2.66.05-5.041.5-7.144 1.354-2.709 1.114-4.305 2.777-4.787 4.992-.124.556-.136.983-.037 1.28.123.408.247.674.371.798 2.264-.854 4.496-1.28 6.698-1.28a10.4 10.4 0 0 1 1.93.185c1.929.383 2.894 1.243 2.894 2.58 0 .333-.037.636-.111.908-.049.186-.179.433-.39.742-.198.297-.358.409-.482.335-.05-.038-.074-.08-.074-.13.346-.755.519-1.324.519-1.707 0-1.596-1.428-2.394-4.286-2.394-1.422 0-3.08.383-4.973 1.15-4.205 1.67-7.731 4.113-10.576 7.33-1.62 1.818-2.517 3.525-2.69 5.12-.124 1.064-.05 1.955.222 2.672.73 1.893 2.413 2.84 5.047 2.84 4.664 0 11.548-4.547 20.652-13.638.655-.656 1.323-1.312 2.004-1.967 5.467-5.27 9.407-8.226 11.819-8.87Z" fill="#000"/></g><g filter="url(#k)"><path d="M145.069 18.433c.025.198-.105.328-.389.39-2.078.321-3.544.822-4.398 1.502-.136.112-.229.112-.278 0-.05-.05-.074-.086-.074-.11 0-.05.037-.1.111-.15.359-.482 1.014-.958 1.967-1.428.952-.47 1.719-.705 2.301-.705.531 0 .797.105.797.315a.41.41 0 0 1-.037.186Zm-.501 1.558c0 .1-.061.174-.185.223-1.831.507-3.365 1.23-4.602 2.171-.309.223-.525.185-.649-.111-.074-.174.012-.39.26-.65.383-.482 1.156-.915 2.319-1.299 1.064-.346 1.967-.507 2.709-.482.099 0 .148.05.148.148Z" fill="#000"/></g><g filter="url(#l)"><path d="M135.272 12.124a.988.988 0 0 1-.334.742.994.994 0 0 1-.723.316c-.285 0-.532-.105-.742-.316a1.013 1.013 0 0 1-.316-.742c0-.272.105-.513.316-.723a.987.987 0 0 1 .742-.334c.272 0 .513.11.723.334.223.21.334.451.334.723Zm-2.913 3.154c-6.283 5.703-9.425 9.16-9.425 10.373 0 .185.061.303.185.352.149.074.377.062.687-.037 1.496-.507 3.562-1.942 6.197-4.305l.761-.686c.123-.074.21-.136.259-.186.075-.05.155-.03.242.056.086.087.105.167.055.241a.59.59 0 0 1-.185.204c-1.163 1.163-2.505 2.289-4.027 3.377-1.793 1.287-3.148 1.93-4.063 1.93-.965 0-1.447-.402-1.447-1.206 0-1.645 1.911-4.144 5.733-7.496 1.138-1.015 1.899-1.633 2.282-1.856.916-.581 1.831-.835 2.746-.76Z" fill="#000"/></g><g filter="url(#m)"><path d="M126.218 15.427a113.444 113.444 0 0 0-4.565 4.379c-3.142 3.191-4.713 5.14-4.713 5.845 0 .123.05.216.149.278.458.198 1.688-.476 3.692-2.023.916-.705 2.122-1.731 3.618-3.08a.875.875 0 0 1 .223-.148c.099-.025.173.012.223.111.049.124.049.21 0 .26a46.61 46.61 0 0 1-2.004 1.8c-2.994 2.474-4.923 3.71-5.789 3.71-.903 0-1.355-.414-1.355-1.242 0-.557.254-1.219.761-1.986-2.561 2.153-4.385 3.229-5.474 3.229-.866 0-1.298-.415-1.298-1.243 0-.866.408-1.93 1.224-3.192.928-1.497 2.357-2.931 4.286-4.305 1.93-1.385 3.73-2.27 5.4-2.653.581-.123 1.051-.148 1.41-.074.532.124.767.464.705 1.02-.025.409-.414.978-1.169 1.707 1.163-.964 1.874-1.521 2.134-1.67.878-.556 1.725-.797 2.542-.723Zm-4.027.575c0-.247-.154-.37-.463-.37-1.163 0-3.606 1.756-7.33 5.269a25.544 25.544 0 0 0-1.595 1.67c-1.039 1.224-1.658 2.152-1.856 2.783-.111.321-.049.538.186.65.173.073.501-.02.983-.28 2.585-1.335 5.573-3.957 8.962-7.866.742-.83 1.113-1.448 1.113-1.856Zm-8.108 13.081c0 .705-.359 1.058-1.076 1.058-.272 0-.52-.105-.742-.316a1.013 1.013 0 0 1-.316-.742c0-.705.353-1.057 1.058-1.057.717 0 1.076.352 1.076 1.057Z" fill="#000"/></g><g filter="url(#n)"><path d="M114.436 1.678a6.196 6.196 0 0 1-1.262.297c-1.373.334-2.678 1.082-3.915 2.245 2.152 1.93 3.315 4.373 3.488 7.329.062.866.025 1.614-.111 2.245-.928 4.614-3.322 8.084-7.181 10.41-3.365 2.053-7.558 3.08-12.58 3.08-1.942 0-4.336-.205-7.18-.613-3.34-.47-5.301-.748-5.882-.835 1.546 3.835 4.824 5.752 9.834 5.752 1.546 0 2.925-.396 4.137-1.187l.39-.297c.123-.1.21-.124.26-.075.074.05.11.112.11.186 0 .272-.389.6-1.168.983-1.188.582-2.493.873-3.915.873-5.146 0-8.566-2.01-10.26-6.03a14.85 14.85 0 0 1-3.23.686 2.507 2.507 0 0 1-.909-.093c-.433-.099-.637-.272-.612-.52 0-.383.229-.661.687-.835a6.051 6.051 0 0 1 2.653-.39c.31.026.668.075 1.076.15-.408-1.287-.612-2.74-.612-4.361 0-5.579 2.369-10.292 7.106-14.139 4.305-3.5 9.105-5.25 14.399-5.25 1.187 0 2.214.067 3.08.203 2.251.322 4.187 1.064 5.807 2.227 1.782-1.36 3.557-2.103 5.326-2.227.247.075.402.136.464.186Zm-4.231 13.897c.767-1.694 1.095-3.426.983-5.195-.148-2.338-.946-4.274-2.393-5.808-1.435 1.213-3.08 2.92-4.936 5.122l-4.564 5.436a6.105 6.105 0 0 1-.371.408h5.548l-.835.761h-5.4c-5.418 5.727-10.928 8.783-16.532 9.166.458.099 1.268.235 2.43.408 3.402.507 6.328.761 8.777.761 2.969 0 5.684-.557 8.146-1.67 4.094-1.868 7.143-4.997 9.147-9.389Zm-2.004-11.504c-1.806-1.422-4.366-2.133-7.681-2.133-5.122 0-9.872 1.837-14.25 5.51-4.862 4.082-7.292 8.591-7.292 13.527 0 1.57.204 2.956.612 4.156 3.166-.111 6.104-1.014 8.813-2.709 2.029-1.262 4.385-3.303 7.07-6.123h-7.274l.798-.76h7.2c.247-.273.42-.458.519-.557 5.047-5.43 8.875-9.067 11.485-10.91Z" fill="#000"/></g><g filter="url(#o)"><path d="M70.108 15.204c-6.185 5.802-9.277 9.296-9.277 10.484a.3.3 0 0 0 .111.24c.161.075.39.044.687-.092 1.088-.445 2.66-1.57 4.713-3.377l1.781-1.558.241-.149c.075-.05.149-.037.223.037.074.074.099.149.074.223a.814.814 0 0 1-.148.241c-.89.878-2.11 1.917-3.656 3.117-1.917 1.51-3.234 2.24-3.952 2.19-.804-.05-1.243-.39-1.317-1.02-.074-.656.154-1.43.686-2.32-.334.334-.779.717-1.336 1.15-1.905 1.46-3.271 2.19-4.1 2.19-.89 0-1.336-.39-1.336-1.17 0-1.496 1.392-3.512 4.175-6.048 1.781-1.62 3.278-2.77 4.49-3.451.532-.31 1.317-.464 2.356-.464-3.723 3.018-6.407 5.579-8.052 7.682-1.04 1.31-1.559 2.17-1.559 2.579 0 .185.1.278.297.278.124 0 .29-.043.501-.13 1.336-.73 2.325-1.336 2.969-1.818l.872-.798a67.395 67.395 0 0 0 2.04-1.93l.687-.686c2.586-2.586 4.51-4.262 5.77-5.029.558-.321 1.244-.445 2.06-.37Z" fill="#000"/></g><g filter="url(#p)"><path d="M57.454 15.204c.31.173.476.402.501.687.074.804-.587 1.688-1.985 2.653-1.138.792-2.43 1.274-3.878 1.447-.433.05-.736.013-.91-.11-.556.506-1.137 1.1-1.744 1.78-1.521 1.695-2.282 2.95-2.282 3.767 0 .458.328.686.984.686.742 0 1.806-.445 3.191-1.335a30.02 30.02 0 0 0 4.824-3.841c.087-.075.192-.136.316-.186.099-.05.185-.025.26.074a.188.188 0 0 1 0 .223c-.508.742-2.041 2.01-4.602 3.804-1.794 1.274-3.34 1.855-4.639 1.744-1.286-.1-1.855-.78-1.707-2.041 0-.483.192-1.107.575-1.874.866-1.72 2.462-3.402 4.788-5.047 1.768-1.237 3.364-2.047 4.787-2.43.68-.174 1.187-.174 1.521 0Zm-.074.65c0-.235-.1-.353-.297-.353-.334 0-1.058.408-2.17 1.225-1.374.99-2.543 1.967-3.508 2.931.087.025.18.038.279.038 1.039 0 2.344-.613 3.915-1.837 1.187-.928 1.78-1.596 1.78-2.004Zm.018-5.548.223.334c0 .074-.087.111-.26.111-.086 0-.179-.05-.278-.148-.482-.285-.977-.786-1.484-1.503-.507-.718-.773-1.342-.798-1.874-.025-.718.241-1.076.798-1.076.581 0 .847.408.798 1.224-.075 1.138.26 2.115 1.002 2.932Zm3.414 3.34c0 .21-.074.315-.222.315-.334 0-.718-.798-1.15-2.393-.396.222-.736.395-1.021.52-1.497.79-2.802 1.385-3.915 1.78-.346.136-.52.124-.52-.037-.16-.123-.123-.247.112-.37 1.546-.916 2.43-1.448 2.653-1.597l3.488-2.17c.136 0 .217.049.241.148.223 1.657.334 2.925.334 3.804Z" fill="#000"/></g><g filter="url(#q)"><path d="M52.852 12.124a.99.99 0 0 1-.333.742.995.995 0 0 1-.724.316c-.285 0-.532-.105-.742-.316a1.016 1.016 0 0 1-.316-.742c0-.272.105-.513.316-.723a.989.989 0 0 1 .742-.334c.272 0 .513.11.724.334.222.21.334.451.334.723Zm-2.912 3.154c-6.284 5.703-9.426 9.16-9.426 10.373 0 .185.061.303.185.352.149.074.378.062.687-.037 1.496-.507 3.562-1.942 6.197-4.305l.76-.686c.124-.074.211-.136.26-.186.075-.05.155-.03.242.056.086.087.105.167.055.241a.592.592 0 0 1-.185.204c-1.163 1.163-2.505 2.289-4.027 3.377-1.793 1.287-3.148 1.93-4.063 1.93-.965 0-1.447-.402-1.447-1.206 0-1.645 1.91-4.144 5.733-7.496 1.138-1.015 1.899-1.633 2.282-1.856.916-.581 1.831-.835 2.747-.76Z" fill="#000"/></g><g filter="url(#r)"><path d="M43.278 11.902c.087.049.037.148-.148.296-.705.433-1.429.866-2.171 1.3-1.113.73-1.67 1.224-1.67 1.484 0 .173.322.358.965.556.78.26 1.12.705 1.02 1.336-.05.334-.216.73-.5 1.188-.508.828-1.244 1.713-2.209 2.653l-2.504 2.357c-1.188 1.113-1.819 1.898-1.893 2.356-.05.247-.012.414.111.5.124.075.353.057.687-.055 1.014-.297 2.27-1.064 3.766-2.3l1.522-1.262a56.23 56.23 0 0 0 1.633-1.41l.222-.149c.149.074.235.173.26.297a.487.487 0 0 1-.111.241 37.278 37.278 0 0 1-4.212 3.451c-1.757 1.213-2.975 1.819-3.655 1.819-.891 0-1.305-.452-1.243-1.355.074-1.496 1.335-3.321 3.785-5.473 1.125-.99 1.874-1.664 2.245-2.023.742-.705 1.113-1.15 1.113-1.336a.355.355 0 0 0-.241-.297c-.68-.272-1.107-.525-1.28-.76-3.142 3.092-5.524 5.374-7.144 6.846a.426.426 0 0 1-.241.075c-.198 0-.272-.118-.223-.353a.56.56 0 0 1 .186-.223l2.06-1.855c2.35-2.152 4.069-3.829 5.157-5.029 0-.58.495-1.261 1.485-2.04.767-.607 1.602-.91 2.505-.91.383 0 .624.025.723.075Z" fill="#000"/></g><g filter="url(#s)"><path d="M55.32 5.482c.112.198-.074.334-.556.408-.532.16-1.305.173-2.32.037a106.89 106.89 0 0 1-8.257-1.355c-1.31 1.163-2.919 2.69-4.824 4.583-.878.916-2.412 2.511-4.601 4.788l-2.765 2.931C23.97 25.36 16.535 29.48 9.694 29.232c-3.575-.136-5.362-1.813-5.362-5.029 0-2.078.81-4.242 2.43-6.494-1.038-.754-1.546-2.047-1.52-3.878.024-2.103.723-4.038 2.096-5.807C10.8 3.509 16.906 1.25 25.65 1.25c4.862 0 10.99.773 18.388 2.32 1.299-1.089 2.703-1.77 4.212-2.042.16.05.254.1.278.149a6.681 6.681 0 0 1-.65.334 8.56 8.56 0 0 0-2.894 1.763c3.86.952 6.798 1.546 8.814 1.78.507.05.952.013 1.336-.11.099-.025.16-.013.185.037ZM43.093 4.368c-2.004-.321-3.155-.507-3.451-.556-5.32-.817-9.995-1.225-14.028-1.225-4.638 0-8.782.736-12.431 2.208-4.96 2.004-7.416 5.004-7.367 9 .025 1.644.415 2.85 1.17 3.617a23.361 23.361 0 0 1 2.282-2.467 23.218 23.218 0 0 1 8.776-5.214c2.536-.841 4.78-1.182 6.735-1.02 2.71.197 4.002 1.397 3.878 3.599-.024.383-.13.575-.315.575-.124-.025-.173-.278-.149-.76.05-.94-.303-1.677-1.057-2.209-.631-.457-1.441-.699-2.43-.723-.916-.025-1.893.105-2.933.39-2.882.754-5.807 2.207-8.776 4.36-5.121 3.698-7.805 7.02-8.053 9.963-.26 3.019 1.373 4.59 4.899 4.713 2.783.1 6.141-1.156 10.075-3.766 2.758-1.819 6.179-4.695 10.26-8.628 2.104-2.029 4.206-4.051 6.31-6.068 2.449-2.337 4.65-4.267 6.605-5.789Z" fill="#000"/></g><defs><filter id="a" x="309.685" y="15.093" width="24.244" height="19.708" filterUnits="userSpaceOnUse" color-interpolation-filters="sRGB"><feFlood flood-opacity="0" result="BackgroundImageFix"/><feColorMatrix in="SourceAlpha" values="0 0 0 0 0 0 0 0 0 0 0 0 0 0 0 0 0 0 127 0" result="hardAlpha"/><feOffset dy="4"/><feGaussianBlur stdDeviation="2"/><feColorMatrix values="0 0 0 0 1 0 0 0 0 1 0 0 0 0 1 0 0 0 1 0"/><feBlend in2="BackgroundImageFix" result="effect1_dropShadow_2_369"/><feBlend in="SourceGraphic" in2="effect1_dropShadow_2_369" result="shape"/></filter><filter id="b" x="302.453" y="9.694" width="23.052" height="24.917" filterUnits="userSpaceOnUse" color-interpolation-filters="sRGB"><feFlood flood-opacity="0" result="BackgroundImageFix"/><feColorMatrix in="SourceAlpha" values="0 0 0 0 0 0 0 0 0 0 0 0 0 0 0 0 0 0 127 0" result="hardAlpha"/><feOffset dy="4"/><feGaussianBlur stdDeviation="2"/><feColorMatrix values="0 0 0 0 1 0 0 0 0 1 0 0 0 0 1 0 0 0 1 0"/><feBlend in2="BackgroundImageFix" result="effect1_dropShadow_2_369"/><feBlend in="SourceGraphic" in2="effect1_dropShadow_2_369" result="shape"/></filter><filter id="c" x="269.814" y="15.167" width="46.136" height="30.043" filterUnits="userSpaceOnUse" color-interpolation-filters="sRGB"><feFlood flood-opacity="0" result="BackgroundImageFix"/><feColorMatrix in="SourceAlpha" values="0 0 0 0 0 0 0 0 0 0 0 0 0 0 0 0 0 0 127 0" result="hardAlpha"/><feOffset dy="4"/><feGaussianBlur stdDeviation="2"/><feColorMatrix values="0 0 0 0 1 0 0 0 0 1 0 0 0 0 1 0 0 0 1 0"/><feBlend in2="BackgroundImageFix" result="effect1_dropShadow_2_369"/><feBlend in="SourceGraphic" in2="effect1_dropShadow_2_369" result="shape"/></filter><filter id="d" x="279.061" y="15.183" width="24.606" height="19.379" filterUnits="userSpaceOnUse" color-interpolation-filters="sRGB"><feFlood flood-opacity="0" result="BackgroundImageFix"/><feColorMatrix in="SourceAlpha" values="0 0 0 0 0 0 0 0 0 0 0 0 0 0 0 0 0 0 127 0" result="hardAlpha"/><feOffset dy="4"/><feGaussianBlur stdDeviation="2"/><feColorMatrix values="0 0 0 0 1 0 0 0 0 1 0 0 0 0 1 0 0 0 1 0"/><feBlend in2="BackgroundImageFix" result="effect1_dropShadow_2_369"/><feBlend in="SourceGraphic" in2="effect1_dropShadow_2_369" result="shape"/></filter><filter id="e" x="243.897" y="1.288" width="47.987" height="38.782" filterUnits="userSpaceOnUse" color-interpolation-filters="sRGB"><feFlood flood-opacity="0" result="BackgroundImageFix"/><feColorMatrix in="SourceAlpha" values="0 0 0 0 0 0 0 0 0 0 0 0 0 0 0 0 0 0 127 0" result="hardAlpha"/><feOffset dy="4"/><feGaussianBlur stdDeviation="2"/><feColorMatrix values="0 0 0 0 1 0 0 0 0 1 0 0 0 0 1 0 0 0 1 0"/><feBlend in2="BackgroundImageFix" result="effect1_dropShadow_2_369"/><feBlend in="SourceGraphic" in2="effect1_dropShadow_2_369" result="shape"/></filter><filter id="f" x="221.522" y="6.242" width="29.82" height="28.559" filterUnits="userSpaceOnUse" color-interpolation-filters="sRGB"><feFlood flood-opacity="0" result="BackgroundImageFix"/><feColorMatrix in="SourceAlpha" values="0 0 0 0 0 0 0 0 0 0 0 0 0 0 0 0 0 0 127 0" result="hardAlpha"/><feOffset dy="4"/><feGaussianBlur stdDeviation="2"/><feColorMatrix values="0 0 0 0 1 0 0 0 0 1 0 0 0 0 1 0 0 0 1 0"/><feBlend in2="BackgroundImageFix" result="effect1_dropShadow_2_369"/><feBlend in="SourceGraphic" in2="effect1_dropShadow_2_369" result="shape"/></filter><filter id="g" x="208.785" y="15.093" width="24.244" height="19.708" filterUnits="userSpaceOnUse" color-interpolation-filters="sRGB"><feFlood flood-opacity="0" result="BackgroundImageFix"/><feColorMatrix in="SourceAlpha" values="0 0 0 0 0 0 0 0 0 0 0 0 0 0 0 0 0 0 127 0" result="hardAlpha"/><feOffset dy="4"/><feGaussianBlur stdDeviation="2"/><feColorMatrix values="0 0 0 0 1 0 0 0 0 1 0 0 0 0 1 0 0 0 1 0"/><feBlend in2="BackgroundImageFix" result="effect1_dropShadow_2_369"/><feBlend in="SourceGraphic" in2="effect1_dropShadow_2_369" result="shape"/></filter><filter id="h" x="197.42" y="11.018" width="25.017" height="23.542" filterUnits="userSpaceOnUse" color-interpolation-filters="sRGB"><feFlood flood-opacity="0" result="BackgroundImageFix"/><feColorMatrix in="SourceAlpha" values="0 0 0 0 0 0 0 0 0 0 0 0 0 0 0 0 0 0 127 0" result="hardAlpha"/><feOffset dy="4"/><feGaussianBlur stdDeviation="2"/><feColorMatrix values="0 0 0 0 1 0 0 0 0 1 0 0 0 0 1 0 0 0 1 0"/><feBlend in2="BackgroundImageFix" result="effect1_dropShadow_2_369"/><feBlend in="SourceGraphic" in2="effect1_dropShadow_2_369" result="shape"/></filter><filter id="i" x="184.005" y="6.242" width="29.82" height="28.559" filterUnits="userSpaceOnUse" color-interpolation-filters="sRGB"><feFlood flood-opacity="0" result="BackgroundImageFix"/><feColorMatrix in="SourceAlpha" values="0 0 0 0 0 0 0 0 0 0 0 0 0 0 0 0 0 0 127 0" result="hardAlpha"/><feOffset dy="4"/><feGaussianBlur stdDeviation="2"/><feColorMatrix values="0 0 0 0 1 0 0 0 0 1 0 0 0 0 1 0 0 0 1 0"/><feBlend in2="BackgroundImageFix" result="effect1_dropShadow_2_369"/><feBlend in="SourceGraphic" in2="effect1_dropShadow_2_369" result="shape"/></filter><filter id="j" x="150.978" y=".917" width="63.503" height="36.611" filterUnits="userSpaceOnUse" color-interpolation-filters="sRGB"><feFlood flood-opacity="0" result="BackgroundImageFix"/><feColorMatrix in="SourceAlpha" values="0 0 0 0 0 0 0 0 0 0 0 0 0 0 0 0 0 0 127 0" result="hardAlpha"/><feOffset dy="4"/><feGaussianBlur stdDeviation="2"/><feColorMatrix values="0 0 0 0 1 0 0 0 0 1 0 0 0 0 1 0 0 0 1 0"/><feBlend in2="BackgroundImageFix" result="effect1_dropShadow_2_369"/><feBlend in="SourceGraphic" in2="effect1_dropShadow_2_369" result="shape"/></filter><filter id="k" x="135.106" y="17.932" width="14" height="12.596" filterUnits="userSpaceOnUse" color-interpolation-filters="sRGB"><feFlood flood-opacity="0" result="BackgroundImageFix"/><feColorMatrix in="SourceAlpha" values="0 0 0 0 0 0 0 0 0 0 0 0 0 0 0 0 0 0 127 0" result="hardAlpha"/><feOffset dy="4"/><feGaussianBlur stdDeviation="2"/><feColorMatrix values="0 0 0 0 1 0 0 0 0 1 0 0 0 0 1 0 0 0 1 0"/><feBlend in2="BackgroundImageFix" result="effect1_dropShadow_2_369"/><feBlend in="SourceGraphic" in2="effect1_dropShadow_2_369" result="shape"/></filter><filter id="l" x="117.598" y="11.067" width="21.675" height="23.53" filterUnits="userSpaceOnUse" color-interpolation-filters="sRGB"><feFlood flood-opacity="0" result="BackgroundImageFix"/><feColorMatrix in="SourceAlpha" values="0 0 0 0 0 0 0 0 0 0 0 0 0 0 0 0 0 0 127 0" result="hardAlpha"/><feOffset dy="4"/><feGaussianBlur stdDeviation="2"/><feColorMatrix values="0 0 0 0 1 0 0 0 0 1 0 0 0 0 1 0 0 0 1 0"/><feBlend in2="BackgroundImageFix" result="effect1_dropShadow_2_369"/><feBlend in="SourceGraphic" in2="effect1_dropShadow_2_369" result="shape"/></filter><filter id="m" x="105.686" y="15.051" width="24.532" height="23.09" filterUnits="userSpaceOnUse" color-interpolation-filters="sRGB"><feFlood flood-opacity="0" result="BackgroundImageFix"/><feColorMatrix in="SourceAlpha" values="0 0 0 0 0 0 0 0 0 0 0 0 0 0 0 0 0 0 127 0" result="hardAlpha"/><feOffset dy="4"/><feGaussianBlur stdDeviation="2"/><feColorMatrix values="0 0 0 0 1 0 0 0 0 1 0 0 0 0 1 0 0 0 1 0"/><feBlend in2="BackgroundImageFix" result="effect1_dropShadow_2_369"/><feBlend in="SourceGraphic" in2="effect1_dropShadow_2_369" result="shape"/></filter><filter id="n" x="70.448" y="1.288" width="47.987" height="38.782" filterUnits="userSpaceOnUse" color-interpolation-filters="sRGB"><feFlood flood-opacity="0" result="BackgroundImageFix"/><feColorMatrix in="SourceAlpha" values="0 0 0 0 0 0 0 0 0 0 0 0 0 0 0 0 0 0 127 0" result="hardAlpha"/><feOffset dy="4"/><feGaussianBlur stdDeviation="2"/><feColorMatrix values="0 0 0 0 1 0 0 0 0 1 0 0 0 0 1 0 0 0 1 0"/><feBlend in2="BackgroundImageFix" result="effect1_dropShadow_2_369"/><feBlend in="SourceGraphic" in2="effect1_dropShadow_2_369" result="shape"/></filter><filter id="o" x="49.502" y="15.183" width="24.606" height="19.379" filterUnits="userSpaceOnUse" color-interpolation-filters="sRGB"><feFlood flood-opacity="0" result="BackgroundImageFix"/><feColorMatrix in="SourceAlpha" values="0 0 0 0 0 0 0 0 0 0 0 0 0 0 0 0 0 0 127 0" result="hardAlpha"/><feOffset dy="4"/><feGaussianBlur stdDeviation="2"/><feColorMatrix values="0 0 0 0 1 0 0 0 0 1 0 0 0 0 1 0 0 0 1 0"/><feBlend in2="BackgroundImageFix" result="effect1_dropShadow_2_369"/><feBlend in="SourceGraphic" in2="effect1_dropShadow_2_369" result="shape"/></filter><filter id="p" x="41.76" y="6.15" width="23.052" height="28.461" filterUnits="userSpaceOnUse" color-interpolation-filters="sRGB"><feFlood flood-opacity="0" result="BackgroundImageFix"/><feColorMatrix in="SourceAlpha" values="0 0 0 0 0 0 0 0 0 0 0 0 0 0 0 0 0 0 127 0" result="hardAlpha"/><feOffset dy="4"/><feGaussianBlur stdDeviation="2"/><feColorMatrix values="0 0 0 0 1 0 0 0 0 1 0 0 0 0 1 0 0 0 1 0"/><feBlend in2="BackgroundImageFix" result="effect1_dropShadow_2_369"/><feBlend in="SourceGraphic" in2="effect1_dropShadow_2_369" result="shape"/></filter><filter id="q" x="35.178" y="11.067" width="21.675" height="23.53" filterUnits="userSpaceOnUse" color-interpolation-filters="sRGB"><feFlood flood-opacity="0" result="BackgroundImageFix"/><feColorMatrix in="SourceAlpha" values="0 0 0 0 0 0 0 0 0 0 0 0 0 0 0 0 0 0 127 0" result="hardAlpha"/><feOffset dy="4"/><feGaussianBlur stdDeviation="2"/><feColorMatrix values="0 0 0 0 1 0 0 0 0 1 0 0 0 0 1 0 0 0 1 0"/><feBlend in2="BackgroundImageFix" result="effect1_dropShadow_2_369"/><feBlend in="SourceGraphic" in2="effect1_dropShadow_2_369" result="shape"/></filter><filter id="r" x="27.147" y="11.827" width="20.172" height="22.732" filterUnits="userSpaceOnUse" color-interpolation-filters="sRGB"><feFlood flood-opacity="0" result="BackgroundImageFix"/><feColorMatrix in="SourceAlpha" values="0 0 0 0 0 0 0 0 0 0 0 0 0 0 0 0 0 0 127 0" result="hardAlpha"/><feOffset dy="4"/><feGaussianBlur stdDeviation="2"/><feColorMatrix values="0 0 0 0 1 0 0 0 0 1 0 0 0 0 1 0 0 0 1 0"/><feBlend in2="BackgroundImageFix" result="effect1_dropShadow_2_369"/><feBlend in="SourceGraphic" in2="effect1_dropShadow_2_369" result="shape"/></filter><filter id="s" x=".332" y="1.251" width="59.02" height="35.991" filterUnits="userSpaceOnUse" color-interpolation-filters="sRGB"><feFlood flood-opacity="0" result="BackgroundImageFix"/><feColorMatrix in="SourceAlpha" values="0 0 0 0 0 0 0 0 0 0 0 0 0 0 0 0 0 0 127 0" result="hardAlpha"/><feOffset dy="4"/><feGaussianBlur stdDeviation="2"/><feColorMatrix values="0 0 0 0 1 0 0 0 0 1 0 0 0 0 1 0 0 0 1 0"/><feBlend in2="BackgroundImageFix" result="effect1_dropShadow_2_369"/><feBlend in="SourceGraphic" in2="effect1_dropShadow_2_369" result="shape"/></filter></defs></svg>