<svg width="334" height="46" viewBox="0 0 334 46" fill="none" xmlns="http://www.w3.org/2000/svg">
<g filter="url(#filter0_d_2_369)">
<path d="M329.614 20.9748C329.825 20.8511 329.93 20.9439 329.93 21.2531C329.93 21.3273 329.825 21.451 329.614 21.6242C327.845 23.1704 326.429 24.3085 325.365 25.0383C323.819 26.1021 322.613 26.634 321.747 26.634C320.992 26.634 320.566 26.2443 320.467 25.465C320.306 24.2528 321.289 22.6571 323.417 20.6779L324.456 19.7316C325.718 18.6184 326.602 17.8453 327.109 17.4123C327.926 16.7196 328.334 16.2124 328.334 15.8908C328.334 15.8166 328.291 15.7671 328.204 15.7424C327.759 15.5568 326.441 16.1382 324.252 17.4865C320.665 19.6883 317.714 22.2613 315.401 25.2053L314.158 26.801C313.799 26.801 313.645 26.4299 313.694 25.6877C313.719 25.5393 313.756 25.4156 313.806 25.3166C314.696 23.5848 316.329 21.4696 318.704 18.9709C320.052 17.5484 321.221 16.5217 322.211 15.8908C322.842 15.4826 323.726 15.2785 324.864 15.2785C323.318 16.3423 321.543 17.9875 319.539 20.2141C320.986 19.076 322.409 18.0494 323.807 17.134C325.909 15.7733 327.431 15.093 328.371 15.093C328.693 15.093 328.983 15.1981 329.243 15.4084C329.515 15.6063 329.639 15.8537 329.614 16.1506C329.565 17.0907 328.631 18.4081 326.812 20.1027C325.613 21.1913 324.815 21.9273 324.419 22.3107C322.563 24.0301 321.636 25.1682 321.636 25.7248C321.636 25.9846 321.827 26.1145 322.211 26.1145C323.275 26.1145 325.668 24.4507 329.392 21.1232L329.614 20.9748Z" fill="black"/>
</g>
<g filter="url(#filter1_d_2_369)">
<path d="M318.147 15.2043C318.457 15.3775 318.624 15.6063 318.648 15.8908C318.723 16.6949 318.061 17.5793 316.663 18.5441C315.525 19.3358 314.232 19.8182 312.785 19.9914C312.352 20.0409 312.049 20.0038 311.876 19.8801C311.319 20.3872 310.738 20.981 310.132 21.6613C308.61 23.356 307.85 24.6115 307.85 25.4279C307.85 25.8856 308.177 26.1145 308.833 26.1145C309.575 26.1145 310.639 25.6691 312.024 24.7785C313.731 23.69 315.339 22.4097 316.849 20.9377C316.935 20.8635 317.04 20.8016 317.164 20.7522C317.263 20.7027 317.35 20.7274 317.424 20.8264C317.473 20.9006 317.473 20.9748 317.424 21.049C316.917 21.7912 315.383 23.0591 312.822 24.8527C311.029 26.1268 309.482 26.7082 308.184 26.5969C306.897 26.4979 306.328 25.8176 306.477 24.5559C306.477 24.0734 306.668 23.4488 307.052 22.6818C307.918 20.9624 309.513 19.2801 311.839 17.635C313.608 16.398 315.203 15.5878 316.626 15.2043C317.306 15.0311 317.813 15.0311 318.147 15.2043ZM318.073 15.8537C318.073 15.6187 317.974 15.5012 317.776 15.5012C317.442 15.5012 316.719 15.9094 315.605 16.7258C314.232 17.7154 313.063 18.6926 312.099 19.6574C312.185 19.6822 312.278 19.6945 312.377 19.6945C313.416 19.6945 314.721 19.0822 316.292 17.8576C317.479 16.9299 318.073 16.2619 318.073 15.8537ZM321.506 13.6457C321.506 13.856 321.432 13.9611 321.283 13.9611C320.949 13.9611 320.566 13.1633 320.133 11.5676C319.737 11.7902 319.397 11.9634 319.112 12.0871C317.616 12.8788 316.311 13.4725 315.197 13.8684C314.851 14.0044 314.678 13.9921 314.678 13.8313C314.517 13.7076 314.554 13.5839 314.789 13.4602C316.335 12.5448 317.22 12.0129 317.442 11.8645L320.931 9.69356C321.067 9.69356 321.147 9.74304 321.172 9.842C321.394 11.4995 321.506 12.7675 321.506 13.6457Z" fill="black"/>
</g>
<g filter="url(#filter2_d_2_369)">
<path d="M311.95 15.2414C311.95 15.2909 311.925 15.328 311.876 15.3527C311.443 15.5878 310.862 16.0454 310.132 16.7258C309.823 16.9979 309.291 17.5298 308.536 18.3215C305.617 21.4139 303.44 23.7333 302.005 25.2795C300.001 27.3824 298.622 28.7863 297.867 29.4914C292.165 34.662 286.598 37.2349 281.168 37.2102C280.314 37.2102 279.455 37.0926 278.589 36.8576C275.88 36.1773 274.309 34.7857 273.876 32.6828C273.752 32.0767 273.814 31.7489 274.061 31.6994C274.123 31.6747 274.228 31.8788 274.377 32.3117C274.501 33.0168 274.767 33.6229 275.175 34.1301C276.387 35.6763 278.323 36.4865 280.982 36.5607C284.384 36.6597 288.107 35.231 292.152 32.2746C294.107 30.8521 296.302 28.9348 298.739 26.5227C300.533 24.7538 301.757 23.4364 302.413 22.5705C301.807 23.1766 301.077 23.8137 300.224 24.4816C298.393 25.8671 297.1 26.5598 296.346 26.5598C295.455 26.5598 295.01 26.1578 295.01 25.3537C295.01 23.8322 296.377 21.8407 299.11 19.3791C300.879 17.7834 302.401 16.633 303.675 15.9279C304.355 15.5445 305.128 15.3898 305.994 15.4641C304.139 16.9855 302.531 18.4081 301.17 19.7316C297.904 22.8983 296.271 24.8589 296.271 25.6135C296.271 25.8485 296.395 25.966 296.643 25.966C297.249 25.966 298.362 25.329 299.982 24.0549C300.7 23.4982 302.333 22.0077 304.881 19.5832C306.934 17.6288 308.598 16.2805 309.872 15.5383C310.305 15.2909 310.899 15.1672 311.653 15.1672C311.826 15.1672 311.925 15.1919 311.95 15.2414Z" fill="black"/>
</g>
<g filter="url(#filter3_d_2_369)">
<path d="M299.667 15.2043C293.482 21.0057 290.39 24.5002 290.39 25.6877C290.39 25.7867 290.427 25.8671 290.501 25.9289C290.662 26.0031 290.891 25.9722 291.188 25.8361C292.276 25.3908 293.847 24.2652 295.9 22.4592L297.682 20.9006L297.923 20.7522C297.997 20.7027 298.071 20.715 298.146 20.7893C298.22 20.8635 298.244 20.9377 298.22 21.0119C298.17 21.1232 298.121 21.2036 298.071 21.2531C297.181 22.1314 295.962 23.1704 294.416 24.3703C292.499 25.8794 291.181 26.6092 290.464 26.5598C289.66 26.5103 289.221 26.1701 289.146 25.5393C289.072 24.8837 289.301 24.1105 289.833 23.2199C289.499 23.5539 289.054 23.9374 288.497 24.3703C286.592 25.83 285.225 26.5598 284.396 26.5598C283.506 26.5598 283.061 26.1701 283.061 25.3908C283.061 23.8941 284.452 21.8778 287.235 19.342C289.017 17.7216 290.513 16.5712 291.726 15.8908C292.257 15.5816 293.043 15.427 294.082 15.427C290.359 18.4452 287.674 21.0057 286.029 23.1086C284.99 24.4198 284.471 25.2795 284.471 25.6877C284.471 25.8732 284.57 25.966 284.768 25.966C284.891 25.966 285.058 25.9227 285.269 25.8361C286.604 25.1063 287.594 24.5002 288.237 24.0178L289.109 23.2199C289.988 22.4159 290.668 21.7727 291.15 21.2902L291.837 20.6037C294.422 18.0184 296.346 16.3423 297.607 15.5754C298.164 15.2538 298.851 15.1301 299.667 15.2043Z" fill="black"/>
</g>
<g filter="url(#filter4_d_2_369)">
<path d="M287.885 1.67793C287.452 1.82637 287.031 1.92533 286.623 1.97481C285.25 2.30879 283.945 3.05716 282.708 4.21992C284.86 6.14961 286.023 8.59265 286.196 11.549C286.258 12.4149 286.221 13.1633 286.085 13.7941C285.157 18.4081 282.764 21.8778 278.904 24.2033C275.54 26.2567 271.346 27.2834 266.324 27.2834C264.382 27.2834 261.989 27.0793 259.144 26.6711C255.804 26.201 253.843 25.9227 253.262 25.8361C254.808 29.6708 258.086 31.5881 263.096 31.5881C264.642 31.5881 266.021 31.1923 267.233 30.4006L267.623 30.1037C267.747 30.0048 267.833 29.98 267.883 30.0295C267.957 30.079 267.994 30.1408 267.994 30.215C267.994 30.4872 267.604 30.815 266.825 31.1984C265.638 31.7798 264.333 32.0705 262.91 32.0705C257.764 32.0705 254.344 30.0604 252.649 26.0402C251.61 26.3866 250.534 26.6154 249.421 26.7268C249.112 26.7515 248.809 26.7206 248.512 26.634C248.079 26.535 247.875 26.3619 247.899 26.1145C247.899 25.731 248.128 25.4527 248.586 25.2795C249.477 24.9455 250.361 24.8156 251.239 24.8898C251.548 24.9146 251.907 24.9641 252.315 25.0383C251.907 23.7518 251.703 22.2984 251.703 20.6779C251.703 15.0992 254.072 10.3863 258.81 6.53926C263.114 3.03861 267.914 1.28828 273.208 1.28828C274.396 1.28828 275.422 1.35632 276.288 1.49239C278.539 1.814 280.475 2.55619 282.096 3.71895C283.877 2.35827 285.652 1.61608 287.421 1.49239C287.668 1.5666 287.823 1.62845 287.885 1.67793ZM283.654 15.5754C284.421 13.8807 284.749 12.149 284.638 10.3801C284.489 8.04219 283.691 6.10632 282.244 4.57246C280.76 5.85892 279.115 7.56595 277.309 9.69356C275.057 12.3778 273.536 14.19 272.744 15.1301C267.178 21.6119 261.314 25.0568 255.154 25.465C255.612 25.564 256.422 25.7001 257.585 25.8732C260.987 26.3804 263.912 26.634 266.361 26.634C269.33 26.634 272.045 26.0773 274.507 24.9641C278.601 23.0962 281.65 19.9667 283.654 15.5754ZM281.65 4.07149C279.844 2.64896 277.284 1.9377 273.969 1.9377C268.848 1.9377 264.098 3.77461 259.719 7.44844C254.857 11.5305 252.427 16.0393 252.427 20.9748C252.427 22.5458 252.631 23.9312 253.039 25.1311C256.094 25.0197 258.915 24.191 261.5 22.6447C263.838 21.2593 266.726 18.705 270.165 14.9816C275.051 9.68737 278.88 6.05065 281.65 4.07149Z" fill="black"/>
</g>
<g filter="url(#filter5_d_2_369)">
<path d="M247.343 6.24239L247.306 6.3166C246.514 6.48978 245.512 7.03405 244.3 7.94942C243.669 8.43184 242.716 9.20495 241.442 10.2688C237.892 13.2499 234.868 16.1506 232.369 18.9709C233.408 18.1545 234.658 17.3566 236.117 16.5773C237.973 15.5878 239.346 15.093 240.236 15.093C240.558 15.093 240.861 15.1919 241.146 15.3898C241.442 15.5754 241.578 15.8166 241.554 16.1135C241.504 16.9546 240.849 18.0061 239.587 19.2678C239.302 19.5523 238.783 20.0471 238.028 20.7522C236.433 22.2489 235.418 23.2385 234.985 23.7209C234.07 24.76 233.612 25.4156 233.612 25.6877C233.612 25.9475 233.755 26.0773 234.039 26.0773C234.286 26.0773 234.651 25.9598 235.134 25.7248C236.631 25.0197 238.61 23.5663 241.071 21.3645C241.195 21.2902 241.282 21.2284 241.331 21.1789C241.405 21.1171 241.479 21.1418 241.554 21.2531C241.653 21.4016 241.603 21.5747 241.405 21.7727C237.929 25.0135 235.344 26.634 233.649 26.634C232.92 26.634 232.505 26.2443 232.406 25.465C232.245 24.2528 233.229 22.6571 235.356 20.6779L236.396 19.7316C237.707 18.5565 238.591 17.7834 239.049 17.4123C239.865 16.7196 240.273 16.2248 240.273 15.9279C240.273 15.7795 240.144 15.7053 239.884 15.7053C239.253 15.7053 238.14 16.132 236.544 16.9855C234.614 18.0246 233.043 19.0513 231.831 20.0656C230.037 21.5871 228.126 23.8322 226.098 26.801C225.714 26.801 225.522 26.4423 225.522 25.7248C225.522 25.5516 225.547 25.4156 225.597 25.3166C226.858 22.8303 228.479 20.5975 230.458 18.6184L230.736 18.3586C234.46 14.6353 236.47 12.6314 236.767 12.3469C239.018 10.2935 240.614 8.939 241.554 8.2834C243.558 6.92272 245.487 6.24239 247.343 6.24239Z" fill="black"/>
</g>
<g filter="url(#filter6_d_2_369)">
<path d="M228.714 20.9748C228.924 20.8511 229.029 20.9439 229.029 21.2531C229.029 21.3273 228.924 21.451 228.714 21.6242C226.945 23.1704 225.529 24.3085 224.465 25.0383C222.919 26.1021 221.713 26.634 220.847 26.634C220.092 26.634 219.665 26.2443 219.566 25.465C219.406 24.2528 220.389 22.6571 222.517 20.6779L223.556 19.7316C224.817 18.6184 225.702 17.8453 226.209 17.4123C227.025 16.7196 227.434 16.2124 227.434 15.8908C227.434 15.8166 227.39 15.7671 227.304 15.7424C226.858 15.5568 225.541 16.1382 223.352 17.4865C219.764 19.6883 216.814 22.2613 214.501 25.2053L213.258 26.801C212.899 26.801 212.744 26.4299 212.794 25.6877C212.819 25.5393 212.856 25.4156 212.905 25.3166C213.796 23.5848 215.429 21.4696 217.804 18.9709C219.152 17.5484 220.321 16.5217 221.311 15.8908C221.941 15.4826 222.826 15.2785 223.964 15.2785C222.418 16.3423 220.643 17.9875 218.639 20.2141C220.086 19.076 221.508 18.0494 222.906 17.134C225.009 15.7733 226.531 15.093 227.471 15.093C227.792 15.093 228.083 15.1981 228.343 15.4084C228.615 15.6063 228.739 15.8537 228.714 16.1506C228.664 17.0907 227.73 18.4081 225.912 20.1027C224.712 21.1913 223.914 21.9273 223.519 22.3107C221.663 24.0301 220.735 25.1682 220.735 25.7248C220.735 25.9846 220.927 26.1145 221.311 26.1145C222.374 26.1145 224.768 24.4507 228.491 21.1232L228.714 20.9748Z" fill="black"/>
</g>
<g filter="url(#filter7_d_2_369)">
<path d="M217.952 15.4269C216.307 16.9237 214.785 18.3833 213.388 19.8059C210.246 22.9973 208.675 24.9455 208.675 25.6506C208.675 25.7743 208.724 25.867 208.823 25.9289C209.281 26.1268 210.512 25.4527 212.516 23.9064C213.431 23.2014 214.637 22.1747 216.134 20.8264C216.183 20.7769 216.257 20.7274 216.356 20.6779C216.455 20.6532 216.53 20.6903 216.579 20.7893C216.629 20.9129 216.629 20.9995 216.579 21.049C215.874 21.717 215.206 22.3169 214.575 22.8488C211.582 25.3228 209.652 26.5598 208.786 26.5598C207.883 26.5598 207.432 26.1454 207.432 25.3166C207.432 24.76 207.685 24.0982 208.192 23.3312C205.632 25.4836 203.807 26.5598 202.719 26.5598C201.853 26.5598 201.42 26.1454 201.42 25.3166C201.42 24.4507 201.828 23.3869 202.645 22.1252C203.572 20.6284 205.001 19.1935 206.931 17.8205C208.86 16.4351 210.66 15.5506 212.33 15.1672C212.911 15.0435 213.382 15.0187 213.74 15.093C214.272 15.2167 214.507 15.5568 214.445 16.1135C214.421 16.5217 214.031 17.0907 213.276 17.8205C214.439 16.8557 215.15 16.299 215.41 16.1506C216.288 15.5939 217.136 15.3527 217.952 15.4269ZM213.926 16.0021C213.926 15.7547 213.771 15.631 213.462 15.631C212.299 15.631 209.856 17.3876 206.133 20.9006C205.576 21.4325 205.044 21.9891 204.537 22.5705C203.498 23.7951 202.88 24.7228 202.682 25.3537C202.57 25.6753 202.632 25.8918 202.867 26.0031C203.04 26.0773 203.368 25.9846 203.851 25.7248C206.436 24.3889 209.423 21.7665 212.812 17.8576C213.555 17.0288 213.926 16.4103 213.926 16.0021ZM213.944 13.8684C214.031 13.8312 214.161 13.7756 214.334 13.7014C215.385 13.4169 216.183 12.7674 216.728 11.7531C217.123 11.048 217.562 10.8501 218.045 11.1594C218.527 11.4562 218.564 11.9016 218.156 12.4953C217.847 12.9282 217.284 13.3179 216.468 13.6643C215.664 13.9982 214.983 14.1529 214.427 14.1281C214.278 14.1529 214.173 14.1467 214.111 14.1096C213.963 14.0106 213.907 13.9302 213.944 13.8684Z" fill="black"/>
</g>
<g filter="url(#filter8_d_2_369)">
<path d="M209.825 6.24239L209.788 6.3166C208.996 6.48978 207.994 7.03405 206.782 7.94942C206.151 8.43184 205.199 9.20495 203.925 10.2688C200.375 13.2499 197.35 16.1506 194.852 18.9709C195.891 18.1545 197.14 17.3566 198.6 16.5773C200.455 15.5878 201.828 15.093 202.719 15.093C203.04 15.093 203.343 15.1919 203.628 15.3898C203.925 15.5754 204.061 15.8166 204.036 16.1135C203.987 16.9546 203.331 18.0061 202.069 19.2678C201.785 19.5523 201.265 20.0471 200.511 20.7522C198.915 22.2489 197.901 23.2385 197.468 23.7209C196.552 24.76 196.095 25.4156 196.095 25.6877C196.095 25.9475 196.237 26.0773 196.521 26.0773C196.769 26.0773 197.134 25.9598 197.616 25.7248C199.113 25.0197 201.092 23.5663 203.554 21.3645C203.677 21.2902 203.764 21.2284 203.813 21.1789C203.888 21.1171 203.962 21.1418 204.036 21.2531C204.135 21.4016 204.086 21.5747 203.888 21.7727C200.412 25.0135 197.826 26.634 196.132 26.634C195.402 26.634 194.988 26.2443 194.889 25.465C194.728 24.2528 195.711 22.6571 197.839 20.6779L198.878 19.7316C200.189 18.5565 201.074 17.7834 201.531 17.4123C202.348 16.7196 202.756 16.2248 202.756 15.9279C202.756 15.7795 202.626 15.7053 202.366 15.7053C201.735 15.7053 200.622 16.132 199.026 16.9855C197.097 18.0246 195.526 19.0513 194.313 20.0656C192.52 21.5871 190.609 23.8322 188.58 26.801C188.197 26.801 188.005 26.4423 188.005 25.7248C188.005 25.5516 188.03 25.4156 188.079 25.3166C189.341 22.8303 190.961 20.5975 192.94 18.6184L193.219 18.3586C196.942 14.6353 198.952 12.6314 199.249 12.3469C201.5 10.2935 203.096 8.939 204.036 8.2834C206.04 6.92272 207.97 6.24239 209.825 6.24239Z" fill="black"/>
</g>
<g filter="url(#filter9_d_2_369)">
<path d="M210.456 4.83223C210.506 5.1291 210.481 5.30847 210.382 5.37032C210.407 5.37032 210.32 5.26517 210.122 5.05489C209.64 4.44877 208.829 4.14571 207.691 4.14571C205.663 4.14571 203.028 4.95593 199.787 6.57637L199.472 6.6877C198.284 7.29382 197.474 7.71439 197.041 7.94942L193.775 9.69356C193.145 10.0523 192.712 10.2935 192.477 10.4172C190.51 11.5552 189.18 12.3902 188.487 12.9221C188.265 13.5035 188.091 13.9859 187.968 14.3693C186.718 17.8947 186.069 20.8326 186.02 23.1828C185.995 24.927 186.403 25.799 187.244 25.799C187.702 25.799 188.258 25.5578 188.914 25.0754L189.062 25.0012C189.087 24.9764 189.124 24.9888 189.174 25.0383C189.248 25.1249 189.223 25.23 189.1 25.3537C188.16 26.3928 187.182 26.9123 186.168 26.9123C185.822 26.9123 185.469 26.8319 185.11 26.6711C184.356 26.3495 183.979 25.4774 183.979 24.0549C183.979 23.8075 183.991 23.5292 184.016 23.2199C184.288 19.8553 185.16 16.6021 186.632 13.4602L187.541 12.7736C188.865 11.7841 190.386 10.8068 192.105 9.842L196.596 7.33711C198.216 6.42175 199.534 5.73522 200.548 5.27754C203.764 3.81791 206.133 3.08809 207.654 3.08809C209.015 3.08809 209.949 3.66947 210.456 4.83223ZM196.818 5.01778C196.794 4.9683 196.602 4.90645 196.243 4.83223C196.169 4.80749 196.107 4.79512 196.058 4.79512C196.008 4.81986 195.946 4.83223 195.872 4.83223C195.365 4.90645 194.777 5.13529 194.109 5.51875C191.475 7.06498 188.073 10.2193 183.904 14.9816C179.971 19.4348 176.625 22.688 173.866 24.7414C169.537 27.9328 165.257 29.5285 161.026 29.5285C159.196 29.5285 157.761 29.1265 156.722 28.3225C155.559 27.4318 154.978 26.1021 154.978 24.3332C154.978 22.2303 155.775 20.0718 157.371 17.8576C159.672 14.691 162.839 12.2974 166.871 10.677C166.537 10.578 166.321 10.2378 166.222 9.65645C166.147 9.17403 166.147 8.72871 166.222 8.32051C166.481 7.08353 167.026 5.99499 167.854 5.05489C170.291 2.29642 173.903 0.917191 178.69 0.917191C183.304 0.917191 188.166 1.70267 193.274 3.27364C195.785 4.02819 196.967 4.60957 196.818 5.01778ZM195.334 4.47969C194.753 4.28177 194.078 4.09623 193.312 3.92305L190.547 3.27364C187.046 2.45723 183.106 2.09232 178.728 2.17891C176.068 2.22839 173.687 2.67989 171.584 3.5334C168.875 4.64668 167.279 6.31042 166.797 8.52461C166.673 9.08125 166.661 9.50801 166.76 9.80489C166.883 10.2131 167.007 10.479 167.131 10.6027C169.395 9.74922 171.627 9.32246 173.829 9.32246C174.46 9.32246 175.103 9.38431 175.759 9.50801C177.688 9.89147 178.653 10.7512 178.653 12.0871C178.653 12.4211 178.616 12.7242 178.542 12.9963C178.493 13.1818 178.363 13.4292 178.152 13.7385C177.954 14.0354 177.794 14.1467 177.67 14.0725C177.62 14.0354 177.596 13.9921 177.596 13.9426C177.942 13.188 178.115 12.619 178.115 12.2355C178.115 10.6398 176.687 9.842 173.829 9.842C172.407 9.842 170.749 10.2255 168.856 10.9924C164.651 12.6623 161.125 15.1053 158.28 18.3215C156.66 20.1398 155.763 21.8469 155.59 23.4426C155.466 24.5064 155.54 25.397 155.812 26.1145C156.542 28.007 158.225 28.9533 160.859 28.9533C165.523 28.9533 172.407 24.4074 181.511 15.3156C182.166 14.66 182.834 14.0044 183.515 13.3488C188.982 8.0793 192.922 5.12292 195.334 4.47969Z" fill="black"/>
</g>
<g filter="url(#filter10_d_2_369)">
<path d="M145.069 18.4328C145.094 18.6307 144.964 18.7606 144.68 18.8225C142.602 19.1441 141.136 19.6451 140.282 20.3254C140.146 20.4367 140.053 20.4367 140.004 20.3254C139.954 20.2759 139.93 20.2388 139.93 20.2141C139.93 20.1646 139.967 20.1151 140.041 20.0656C140.4 19.5832 141.055 19.107 142.008 18.6369C142.96 18.1669 143.727 17.9318 144.309 17.9318C144.84 17.9318 145.106 18.037 145.106 18.2473C145.106 18.3215 145.094 18.3833 145.069 18.4328ZM144.568 19.9914C144.568 20.0904 144.507 20.1646 144.383 20.2141C142.552 20.7212 141.018 21.4449 139.781 22.385C139.472 22.6076 139.256 22.5705 139.132 22.2736C139.058 22.1005 139.144 21.884 139.392 21.6242C139.775 21.1418 140.548 20.7089 141.711 20.3254C142.775 19.979 143.678 19.8182 144.42 19.843C144.519 19.843 144.568 19.8925 144.568 19.9914Z" fill="black"/>
</g>
<g filter="url(#filter11_d_2_369)">
<path d="M135.272 12.1242C135.272 12.4087 135.161 12.6561 134.938 12.8664C134.728 13.0767 134.487 13.1818 134.215 13.1818C133.93 13.1818 133.683 13.0767 133.473 12.8664C133.262 12.6561 133.157 12.4087 133.157 12.1242C133.157 11.8521 133.262 11.6109 133.473 11.4006C133.683 11.1779 133.93 11.0666 134.215 11.0666C134.487 11.0666 134.728 11.1779 134.938 11.4006C135.161 11.6109 135.272 11.8521 135.272 12.1242ZM132.359 15.2785C126.076 20.981 122.934 24.4383 122.934 25.6506C122.934 25.8361 122.995 25.9536 123.119 26.0031C123.268 26.0773 123.496 26.065 123.806 25.966C125.302 25.4589 127.368 24.024 130.003 21.6613L130.764 20.9748C130.887 20.9006 130.974 20.8387 131.023 20.7893C131.098 20.7398 131.178 20.7583 131.265 20.8449C131.351 20.9315 131.37 21.0119 131.32 21.0861C131.271 21.1727 131.209 21.2408 131.135 21.2902C129.972 22.453 128.63 23.5786 127.108 24.6672C125.315 25.9536 123.96 26.5969 123.045 26.5969C122.08 26.5969 121.598 26.1949 121.598 25.3908C121.598 23.7456 123.509 21.2469 127.331 17.8947C128.469 16.8804 129.23 16.2619 129.613 16.0393C130.529 15.4579 131.444 15.2043 132.359 15.2785Z" fill="black"/>
</g>
<g filter="url(#filter12_d_2_369)">
<path d="M126.218 15.427C124.573 16.9237 123.051 18.3833 121.653 19.8059C118.511 22.9973 116.94 24.9455 116.94 25.6506C116.94 25.7743 116.99 25.8671 117.089 25.9289C117.547 26.1268 118.777 25.4527 120.781 23.9064C121.697 23.2014 122.903 22.1747 124.399 20.8264C124.449 20.7769 124.523 20.7274 124.622 20.6779C124.721 20.6532 124.795 20.6903 124.845 20.7893C124.894 20.913 124.894 20.9995 124.845 21.049C124.14 21.717 123.472 22.3169 122.841 22.8488C119.847 25.3228 117.918 26.5598 117.052 26.5598C116.149 26.5598 115.697 26.1454 115.697 25.3166C115.697 24.76 115.951 24.0982 116.458 23.3313C113.897 25.4836 112.073 26.5598 110.984 26.5598C110.118 26.5598 109.686 26.1454 109.686 25.3166C109.686 24.4507 110.094 23.3869 110.91 22.1252C111.838 20.6285 113.267 19.1936 115.196 17.8205C117.126 16.4351 118.926 15.5507 120.596 15.1672C121.177 15.0435 121.647 15.0188 122.006 15.093C122.538 15.2167 122.773 15.5568 122.711 16.1135C122.686 16.5217 122.297 17.0907 121.542 17.8205C122.705 16.8557 123.416 16.299 123.676 16.1506C124.554 15.5939 125.401 15.3527 126.218 15.427ZM122.191 16.0022C122.191 15.7548 122.037 15.6311 121.728 15.6311C120.565 15.6311 118.122 17.3876 114.398 20.9006C113.842 21.4325 113.31 21.9891 112.803 22.5705C111.764 23.7951 111.145 24.7229 110.947 25.3537C110.836 25.6753 110.898 25.8918 111.133 26.0031C111.306 26.0773 111.634 25.9846 112.116 25.7248C114.701 24.3889 117.689 21.7665 121.078 17.8576C121.82 17.0288 122.191 16.4104 122.191 16.0022ZM114.083 29.0832C114.083 29.7883 113.724 30.1408 113.007 30.1408C112.735 30.1408 112.487 30.0357 112.265 29.8254C112.054 29.6151 111.949 29.3677 111.949 29.0832C111.949 28.3781 112.302 28.0256 113.007 28.0256C113.724 28.0256 114.083 28.3781 114.083 29.0832Z" fill="black"/>
</g>
<g filter="url(#filter13_d_2_369)">
<path d="M114.436 1.67793C114.003 1.82637 113.582 1.92533 113.174 1.97481C111.801 2.30879 110.496 3.05716 109.259 4.21992C111.411 6.14961 112.574 8.59265 112.747 11.549C112.809 12.4149 112.772 13.1633 112.636 13.7941C111.708 18.4081 109.314 21.8778 105.455 24.2033C102.09 26.2567 97.8971 27.2834 92.875 27.2834C90.9329 27.2834 88.5394 27.0793 85.6943 26.6711C82.3545 26.201 80.3939 25.9227 79.8125 25.8361C81.3587 29.6708 84.6367 31.5881 89.6465 31.5881C91.1927 31.5881 92.5719 31.1923 93.7842 30.4006L94.1738 30.1037C94.2975 30.0048 94.3841 29.98 94.4336 30.0295C94.5078 30.079 94.5449 30.1408 94.5449 30.215C94.5449 30.4872 94.1553 30.815 93.376 31.1984C92.1885 31.7798 90.8835 32.0705 89.4609 32.0705C84.3151 32.0705 80.8948 30.0604 79.2002 26.0402C78.1611 26.3866 77.085 26.6154 75.9717 26.7268C75.6624 26.7515 75.3594 26.7206 75.0625 26.634C74.6295 26.535 74.4254 26.3619 74.4502 26.1145C74.4502 25.731 74.679 25.4527 75.1367 25.2795C76.0273 24.9455 76.9118 24.8156 77.79 24.8898C78.0993 24.9146 78.458 24.9641 78.8662 25.0383C78.458 23.7518 78.2539 22.2984 78.2539 20.6779C78.2539 15.0992 80.6227 10.3863 85.3603 6.53926C89.665 3.03861 94.4645 1.28828 99.7588 1.28828C100.946 1.28828 101.973 1.35632 102.839 1.49239C105.09 1.814 107.026 2.55619 108.646 3.71895C110.428 2.35827 112.203 1.61608 113.972 1.49239C114.219 1.5666 114.374 1.62845 114.436 1.67793ZM110.205 15.5754C110.972 13.8807 111.3 12.149 111.188 10.3801C111.04 8.04219 110.242 6.10632 108.795 4.57246C107.36 5.7847 105.715 7.49173 103.859 9.69356L99.2949 15.1301C99.1712 15.2785 99.0475 15.4146 98.9238 15.5383H104.472L103.637 16.299H98.2373C92.8193 22.0262 87.3086 25.0816 81.7051 25.465C82.1628 25.564 82.973 25.7001 84.1357 25.8732C87.5374 26.3804 90.4629 26.634 92.9121 26.634C95.8809 26.634 98.596 26.0773 101.058 24.9641C105.152 23.0962 108.201 19.9667 110.205 15.5754ZM108.201 4.07149C106.395 2.64896 103.835 1.9377 100.52 1.9377C95.3984 1.9377 90.6484 3.77461 86.2695 7.44844C81.4082 11.5305 78.9775 16.0393 78.9775 20.9748C78.9775 22.5458 79.1816 23.9312 79.5898 25.1311C82.7565 25.0197 85.6943 24.1167 88.4033 22.4221C90.432 21.1604 92.7884 19.1193 95.4726 16.299H88.1992L88.9971 15.5383H96.1963C96.4437 15.2661 96.6169 15.0806 96.7158 14.9816C101.763 9.55131 105.591 5.91459 108.201 4.07149Z" fill="black"/>
</g>
<g filter="url(#filter14_d_2_369)">
<path d="M70.1084 15.2043C63.9235 21.0057 60.8311 24.5002 60.8311 25.6877C60.8311 25.7867 60.8682 25.8671 60.9424 25.9289C61.1032 26.0031 61.332 25.9722 61.6289 25.8361C62.7174 25.3908 64.2884 24.2652 66.3418 22.4592L68.123 20.9006L68.3643 20.7522C68.4385 20.7027 68.5127 20.715 68.5869 20.7893C68.6611 20.8635 68.6859 20.9377 68.6611 21.0119C68.6117 21.1232 68.5622 21.2036 68.5127 21.2531C67.6221 22.1314 66.4036 23.1704 64.8574 24.3703C62.9401 25.8794 61.6227 26.6092 60.9053 26.5598C60.1012 26.5103 59.6621 26.1701 59.5879 25.5393C59.5137 24.8837 59.7425 24.1105 60.2744 23.2199C59.9404 23.5539 59.4951 23.9374 58.9385 24.3703C57.0335 25.83 55.6667 26.5598 54.8379 26.5598C53.9473 26.5598 53.502 26.1701 53.502 25.3908C53.502 23.8941 54.8936 21.8778 57.6768 19.342C59.458 17.7216 60.9548 16.5712 62.167 15.8908C62.6989 15.5816 63.4844 15.427 64.5234 15.427C60.8001 18.4452 58.1159 21.0057 56.4707 23.1086C55.4316 24.4198 54.9121 25.2795 54.9121 25.6877C54.9121 25.8732 55.0111 25.966 55.209 25.966C55.3327 25.966 55.4997 25.9227 55.71 25.8361C57.0459 25.1063 58.0355 24.5002 58.6787 24.0178L59.5508 23.2199C60.429 22.4159 61.1094 21.7727 61.5918 21.2902L62.2783 20.6037C64.8636 18.0184 66.7871 16.3423 68.0488 15.5754C68.6055 15.2538 69.292 15.1301 70.1084 15.2043Z" fill="black"/>
</g>
<g filter="url(#filter15_d_2_369)">
<path d="M57.4541 15.2043C57.7634 15.3775 57.9304 15.6063 57.9551 15.8908C58.0293 16.6949 57.3675 17.5793 55.9697 18.5441C54.8317 19.3358 53.5391 19.8182 52.0918 19.9914C51.6589 20.0409 51.3558 20.0038 51.1826 19.8801C50.626 20.3872 50.0446 20.981 49.4385 21.6613C47.917 23.356 47.1563 24.6115 47.1563 25.4279C47.1563 25.8856 47.4841 26.1145 48.1397 26.1145C48.8819 26.1145 49.9457 25.6691 51.3311 24.7785C53.0381 23.69 54.6462 22.4097 56.1553 20.9377C56.2419 20.8635 56.347 20.8016 56.4707 20.7522C56.5697 20.7027 56.6563 20.7274 56.7305 20.8264C56.78 20.9006 56.78 20.9748 56.7305 21.049C56.2233 21.7912 54.6895 23.0591 52.1289 24.8527C50.3353 26.1268 48.7891 26.7082 47.4903 26.5969C46.2038 26.4979 45.6348 25.8176 45.7832 24.5559C45.7832 24.0734 45.975 23.4488 46.3584 22.6818C47.2243 20.9624 48.82 19.2801 51.1455 17.635C52.9144 16.398 54.5101 15.5878 55.9326 15.2043C56.613 15.0311 57.1201 15.0311 57.4541 15.2043ZM57.3799 15.8537C57.3799 15.6187 57.2809 15.5012 57.083 15.5012C56.749 15.5012 56.0254 15.9094 54.9121 16.7258C53.5391 17.7154 52.3701 18.6926 51.4053 19.6574C51.4919 19.6822 51.5847 19.6945 51.6836 19.6945C52.7227 19.6945 54.0277 19.0822 55.5987 17.8576C56.7862 16.9299 57.3799 16.2619 57.3799 15.8537ZM57.3985 10.3059C57.4974 10.4543 57.5716 10.5656 57.6211 10.6398C57.6211 10.7141 57.5345 10.7512 57.3614 10.7512C57.2748 10.7512 57.182 10.7017 57.083 10.6027C56.6006 10.3182 56.1058 9.81726 55.5987 9.09981C55.0915 8.38236 54.8255 7.75769 54.8008 7.22578C54.7761 6.50834 55.042 6.14961 55.5987 6.14961C56.18 6.14961 56.446 6.55782 56.3965 7.37422C56.3223 8.51224 56.6563 9.48946 57.3985 10.3059ZM60.8125 13.6457C60.8125 13.856 60.7383 13.9611 60.5899 13.9611C60.2559 13.9611 59.8724 13.1633 59.4395 11.5676C59.0436 11.7902 58.7035 11.9634 58.419 12.0871C56.9222 12.8788 55.6172 13.4725 54.5039 13.8684C54.1576 14.0044 53.9844 13.9921 53.9844 13.8313C53.8236 13.7076 53.8607 13.5839 54.0957 13.4602C55.642 12.5448 56.5264 12.0129 56.749 11.8645L60.2373 9.69356C60.3734 9.69356 60.4538 9.74304 60.4785 9.842C60.7012 11.4995 60.8125 12.7675 60.8125 13.6457Z" fill="black"/>
</g>
<g filter="url(#filter16_d_2_369)">
<path d="M52.8525 12.1242C52.8525 12.4087 52.7412 12.6561 52.5186 12.8664C52.3083 13.0767 52.0671 13.1818 51.7949 13.1818C51.5104 13.1818 51.263 13.0767 51.0527 12.8664C50.8424 12.6561 50.7373 12.4087 50.7373 12.1242C50.7373 11.8521 50.8424 11.6109 51.0527 11.4006C51.263 11.1779 51.5104 11.0666 51.7949 11.0666C52.0671 11.0666 52.3083 11.1779 52.5186 11.4006C52.7412 11.6109 52.8525 11.8521 52.8525 12.1242ZM49.9395 15.2785C43.6556 20.981 40.5137 24.4383 40.5137 25.6506C40.5137 25.8361 40.5755 25.9536 40.6992 26.0031C40.8477 26.0773 41.0765 26.065 41.3857 25.966C42.8825 25.4589 44.9482 24.024 47.583 21.6613L48.3438 20.9748C48.4674 20.9006 48.554 20.8387 48.6035 20.7893C48.6777 20.7398 48.7581 20.7583 48.8447 20.8449C48.9313 20.9315 48.9499 21.0119 48.9004 21.0861C48.8509 21.1727 48.7891 21.2408 48.7148 21.2902C47.5521 22.453 46.21 23.5786 44.6885 24.6672C42.8949 25.9536 41.5404 26.5969 40.625 26.5969C39.6602 26.5969 39.1777 26.1949 39.1777 25.3908C39.1777 23.7456 41.0889 21.2469 44.9111 17.8947C46.0492 16.8804 46.8099 16.2619 47.1934 16.0393C48.1087 15.4579 49.0241 15.2043 49.9395 15.2785Z" fill="black"/>
</g>
<g filter="url(#filter17_d_2_369)">
<path d="M43.2783 11.9016C43.3649 11.951 43.3154 12.05 43.1299 12.1984C42.4248 12.6314 41.7012 13.0643 40.959 13.4973C39.8457 14.2271 39.2891 14.7219 39.2891 14.9816C39.2891 15.1548 39.6107 15.3404 40.2539 15.5383C41.0332 15.798 41.3734 16.2434 41.2744 16.8742C41.2249 17.2082 41.058 17.604 40.7734 18.0617C40.2663 18.8905 39.5303 19.7749 38.5654 20.715C37.7367 21.4943 36.9017 22.2798 36.0606 23.0715C34.8731 24.1848 34.2422 24.9703 34.168 25.4279C34.1185 25.6753 34.1556 25.8423 34.2793 25.9289C34.403 26.0031 34.6318 25.9846 34.9658 25.8732C35.9802 25.5764 37.2357 24.8094 38.7324 23.5725L40.2539 22.3107C41.0332 21.6551 41.5775 21.1851 41.8867 20.9006L42.1094 20.7522C42.2578 20.8264 42.3444 20.9253 42.3692 21.049C42.3444 21.1604 42.3073 21.2408 42.2578 21.2902C40.8971 22.5767 39.4932 23.7271 38.0459 24.7414C36.2894 25.9536 35.071 26.5598 34.3906 26.5598C33.5 26.5598 33.0856 26.1083 33.1475 25.2053C33.2217 23.7085 34.4834 21.884 36.9326 19.7316C38.0583 18.7421 38.8067 18.0679 39.1777 17.7092C39.9199 17.0041 40.291 16.5588 40.291 16.3732C40.2663 16.2248 40.1859 16.1258 40.0498 16.0764C39.3695 15.8042 38.9427 15.5507 38.7695 15.3156C35.6276 18.4081 33.2464 20.6903 31.626 22.1623C31.5518 22.2118 31.4714 22.2365 31.3848 22.2365C31.1869 22.2365 31.1126 22.119 31.1621 21.884C31.2116 21.785 31.2734 21.7108 31.3477 21.6613L33.4072 19.8059C35.7575 17.6535 37.4769 15.9774 38.5654 14.7775C38.5654 14.1962 39.0602 13.5158 40.0498 12.7365C40.8167 12.1304 41.6517 11.8273 42.5547 11.8273C42.9382 11.8273 43.1794 11.8521 43.2783 11.9016Z" fill="black"/>
</g>
<g filter="url(#filter18_d_2_369)">
<path d="M55.3203 5.48164C55.4316 5.67956 55.2461 5.81563 54.7637 5.88985C54.2318 6.05065 53.4587 6.06302 52.4443 5.92696C49.8096 5.60534 47.0573 5.15384 44.1875 4.57246C42.8763 5.73522 41.2682 7.26289 39.3633 9.15547C38.485 10.0708 36.9512 11.6665 34.7617 13.9426L31.9971 16.8742C23.9691 25.3599 16.5348 29.479 9.69434 29.2316C6.11947 29.0956 4.33203 27.4195 4.33203 24.2033C4.33203 22.1252 5.14225 19.9605 6.7627 17.7092C5.72363 16.9546 5.21647 15.662 5.24121 13.8313C5.26595 11.7284 5.96484 9.79252 7.33789 8.02364C10.8014 3.50866 16.9059 1.25117 25.6514 1.25117C30.5127 1.25117 36.6419 2.02429 44.0391 3.57051C45.3379 2.48197 46.7419 1.80163 48.251 1.5295C48.4118 1.57897 48.5046 1.62845 48.5293 1.67793C48.2201 1.85111 48.0036 1.96244 47.8799 2.01192C46.8161 2.39538 45.8512 2.98295 44.9854 3.77461C48.8447 4.72709 51.7826 5.32084 53.7988 5.55586C54.306 5.60534 54.7513 5.56823 55.1348 5.44453C55.2337 5.41979 55.2956 5.43216 55.3203 5.48164ZM43.0928 4.36836C41.0889 4.04675 39.9385 3.8612 39.6416 3.81172C34.3226 2.99532 29.6468 2.58711 25.6143 2.58711C20.9756 2.58711 16.8317 3.32311 13.1826 4.79512C8.22233 6.79903 5.76693 9.7987 5.81641 13.7941C5.84115 15.4393 6.23079 16.6454 6.98535 17.4123C7.65332 16.5712 8.41406 15.7486 9.26758 14.9445C11.8034 12.5572 14.7288 10.8192 18.0439 9.73067C20.5798 8.88952 22.8249 8.54935 24.7793 8.71016C27.4883 8.90808 28.7809 10.1079 28.6572 12.3098C28.6325 12.6932 28.5273 12.885 28.3418 12.885C28.2181 12.8602 28.1686 12.6066 28.1934 12.1242C28.2428 11.1841 27.8903 10.4481 27.1357 9.91621C26.5049 9.45853 25.6947 9.21732 24.7051 9.19258C23.7897 9.16784 22.8125 9.29772 21.7734 9.58223C18.8913 10.3368 15.9658 11.7902 12.9971 13.9426C7.87598 17.6411 5.19173 20.9624 4.94434 23.9064C4.68457 26.9247 6.31738 28.4956 9.84277 28.6193C12.626 28.7183 15.9844 27.4628 19.918 24.8527C22.6764 23.0344 26.0967 20.1584 30.1787 16.2248C32.2816 14.1962 34.3844 12.1737 36.4873 10.1574C38.9365 7.81953 41.1383 5.88985 43.0928 4.36836Z" fill="black"/>
</g>
<defs>
<filter id="filter0_d_2_369" x="309.685" y="15.093" width="24.2443" height="19.708" filterUnits="userSpaceOnUse" color-interpolation-filters="sRGB">
<feFlood flood-opacity="0" result="BackgroundImageFix"/>
<feColorMatrix in="SourceAlpha" type="matrix" values="0 0 0 0 0 0 0 0 0 0 0 0 0 0 0 0 0 0 127 0" result="hardAlpha"/>
<feOffset dy="4"/>
<feGaussianBlur stdDeviation="2"/>
<feColorMatrix type="matrix" values="0 0 0 0 1 0 0 0 0 1 0 0 0 0 1 0 0 0 1 0"/>
<feBlend mode="normal" in2="BackgroundImageFix" result="effect1_dropShadow_2_369"/>
<feBlend mode="normal" in="SourceGraphic" in2="effect1_dropShadow_2_369" result="shape"/>
</filter>
<filter id="filter1_d_2_369" x="302.453" y="9.69356" width="23.0523" height="24.9167" filterUnits="userSpaceOnUse" color-interpolation-filters="sRGB">
<feFlood flood-opacity="0" result="BackgroundImageFix"/>
<feColorMatrix in="SourceAlpha" type="matrix" values="0 0 0 0 0 0 0 0 0 0 0 0 0 0 0 0 0 0 127 0" result="hardAlpha"/>
<feOffset dy="4"/>
<feGaussianBlur stdDeviation="2"/>
<feColorMatrix type="matrix" values="0 0 0 0 1 0 0 0 0 1 0 0 0 0 1 0 0 0 1 0"/>
<feBlend mode="normal" in2="BackgroundImageFix" result="effect1_dropShadow_2_369"/>
<feBlend mode="normal" in="SourceGraphic" in2="effect1_dropShadow_2_369" result="shape"/>
</filter>
<filter id="filter2_d_2_369" x="269.814" y="15.1672" width="46.136" height="30.0432" filterUnits="userSpaceOnUse" color-interpolation-filters="sRGB">
<feFlood flood-opacity="0" result="BackgroundImageFix"/>
<feColorMatrix in="SourceAlpha" type="matrix" values="0 0 0 0 0 0 0 0 0 0 0 0 0 0 0 0 0 0 127 0" result="hardAlpha"/>
<feOffset dy="4"/>
<feGaussianBlur stdDeviation="2"/>
<feColorMatrix type="matrix" values="0 0 0 0 1 0 0 0 0 1 0 0 0 0 1 0 0 0 1 0"/>
<feBlend mode="normal" in2="BackgroundImageFix" result="effect1_dropShadow_2_369"/>
<feBlend mode="normal" in="SourceGraphic" in2="effect1_dropShadow_2_369" result="shape"/>
</filter>
<filter id="filter3_d_2_369" x="279.061" y="15.1834" width="24.6064" height="19.3787" filterUnits="userSpaceOnUse" color-interpolation-filters="sRGB">
<feFlood flood-opacity="0" result="BackgroundImageFix"/>
<feColorMatrix in="SourceAlpha" type="matrix" values="0 0 0 0 0 0 0 0 0 0 0 0 0 0 0 0 0 0 127 0" result="hardAlpha"/>
<feOffset dy="4"/>
<feGaussianBlur stdDeviation="2"/>
<feColorMatrix type="matrix" values="0 0 0 0 1 0 0 0 0 1 0 0 0 0 1 0 0 0 1 0"/>
<feBlend mode="normal" in2="BackgroundImageFix" result="effect1_dropShadow_2_369"/>
<feBlend mode="normal" in="SourceGraphic" in2="effect1_dropShadow_2_369" result="shape"/>
</filter>
<filter id="filter4_d_2_369" x="243.897" y="1.28828" width="47.9874" height="38.7822" filterUnits="userSpaceOnUse" color-interpolation-filters="sRGB">
<feFlood flood-opacity="0" result="BackgroundImageFix"/>
<feColorMatrix in="SourceAlpha" type="matrix" values="0 0 0 0 0 0 0 0 0 0 0 0 0 0 0 0 0 0 127 0" result="hardAlpha"/>
<feOffset dy="4"/>
<feGaussianBlur stdDeviation="2"/>
<feColorMatrix type="matrix" values="0 0 0 0 1 0 0 0 0 1 0 0 0 0 1 0 0 0 1 0"/>
<feBlend mode="normal" in2="BackgroundImageFix" result="effect1_dropShadow_2_369"/>
<feBlend mode="normal" in="SourceGraphic" in2="effect1_dropShadow_2_369" result="shape"/>
</filter>
<filter id="filter5_d_2_369" x="221.522" y="6.24239" width="29.8203" height="28.5586" filterUnits="userSpaceOnUse" color-interpolation-filters="sRGB">
<feFlood flood-opacity="0" result="BackgroundImageFix"/>
<feColorMatrix in="SourceAlpha" type="matrix" values="0 0 0 0 0 0 0 0 0 0 0 0 0 0 0 0 0 0 127 0" result="hardAlpha"/>
<feOffset dy="4"/>
<feGaussianBlur stdDeviation="2"/>
<feColorMatrix type="matrix" values="0 0 0 0 1 0 0 0 0 1 0 0 0 0 1 0 0 0 1 0"/>
<feBlend mode="normal" in2="BackgroundImageFix" result="effect1_dropShadow_2_369"/>
<feBlend mode="normal" in="SourceGraphic" in2="effect1_dropShadow_2_369" result="shape"/>
</filter>
<filter id="filter6_d_2_369" x="208.785" y="15.093" width="24.2443" height="19.708" filterUnits="userSpaceOnUse" color-interpolation-filters="sRGB">
<feFlood flood-opacity="0" result="BackgroundImageFix"/>
<feColorMatrix in="SourceAlpha" type="matrix" values="0 0 0 0 0 0 0 0 0 0 0 0 0 0 0 0 0 0 127 0" result="hardAlpha"/>
<feOffset dy="4"/>
<feGaussianBlur stdDeviation="2"/>
<feColorMatrix type="matrix" values="0 0 0 0 1 0 0 0 0 1 0 0 0 0 1 0 0 0 1 0"/>
<feBlend mode="normal" in2="BackgroundImageFix" result="effect1_dropShadow_2_369"/>
<feBlend mode="normal" in="SourceGraphic" in2="effect1_dropShadow_2_369" result="shape"/>
</filter>
<filter id="filter7_d_2_369" x="197.42" y="11.0179" width="25.017" height="23.5418" filterUnits="userSpaceOnUse" color-interpolation-filters="sRGB">
<feFlood flood-opacity="0" result="BackgroundImageFix"/>
<feColorMatrix in="SourceAlpha" type="matrix" values="0 0 0 0 0 0 0 0 0 0 0 0 0 0 0 0 0 0 127 0" result="hardAlpha"/>
<feOffset dy="4"/>
<feGaussianBlur stdDeviation="2"/>
<feColorMatrix type="matrix" values="0 0 0 0 1 0 0 0 0 1 0 0 0 0 1 0 0 0 1 0"/>
<feBlend mode="normal" in2="BackgroundImageFix" result="effect1_dropShadow_2_369"/>
<feBlend mode="normal" in="SourceGraphic" in2="effect1_dropShadow_2_369" result="shape"/>
</filter>
<filter id="filter8_d_2_369" x="184.005" y="6.24239" width="29.8203" height="28.5586" filterUnits="userSpaceOnUse" color-interpolation-filters="sRGB">
<feFlood flood-opacity="0" result="BackgroundImageFix"/>
<feColorMatrix in="SourceAlpha" type="matrix" values="0 0 0 0 0 0 0 0 0 0 0 0 0 0 0 0 0 0 127 0" result="hardAlpha"/>
<feOffset dy="4"/>
<feGaussianBlur stdDeviation="2"/>
<feColorMatrix type="matrix" values="0 0 0 0 1 0 0 0 0 1 0 0 0 0 1 0 0 0 1 0"/>
<feBlend mode="normal" in2="BackgroundImageFix" result="effect1_dropShadow_2_369"/>
<feBlend mode="normal" in="SourceGraphic" in2="effect1_dropShadow_2_369" result="shape"/>
</filter>
<filter id="filter9_d_2_369" x="150.978" y="0.917191" width="63.5032" height="36.6113" filterUnits="userSpaceOnUse" color-interpolation-filters="sRGB">
<feFlood flood-opacity="0" result="BackgroundImageFix"/>
<feColorMatrix in="SourceAlpha" type="matrix" values="0 0 0 0 0 0 0 0 0 0 0 0 0 0 0 0 0 0 127 0" result="hardAlpha"/>
<feOffset dy="4"/>
<feGaussianBlur stdDeviation="2"/>
<feColorMatrix type="matrix" values="0 0 0 0 1 0 0 0 0 1 0 0 0 0 1 0 0 0 1 0"/>
<feBlend mode="normal" in2="BackgroundImageFix" result="effect1_dropShadow_2_369"/>
<feBlend mode="normal" in="SourceGraphic" in2="effect1_dropShadow_2_369" result="shape"/>
</filter>
<filter id="filter10_d_2_369" x="135.106" y="17.9318" width="14.0003" height="12.5963" filterUnits="userSpaceOnUse" color-interpolation-filters="sRGB">
<feFlood flood-opacity="0" result="BackgroundImageFix"/>
<feColorMatrix in="SourceAlpha" type="matrix" values="0 0 0 0 0 0 0 0 0 0 0 0 0 0 0 0 0 0 127 0" result="hardAlpha"/>
<feOffset dy="4"/>
<feGaussianBlur stdDeviation="2"/>
<feColorMatrix type="matrix" values="0 0 0 0 1 0 0 0 0 1 0 0 0 0 1 0 0 0 1 0"/>
<feBlend mode="normal" in2="BackgroundImageFix" result="effect1_dropShadow_2_369"/>
<feBlend mode="normal" in="SourceGraphic" in2="effect1_dropShadow_2_369" result="shape"/>
</filter>
<filter id="filter11_d_2_369" x="117.598" y="11.0666" width="21.6748" height="23.5303" filterUnits="userSpaceOnUse" color-interpolation-filters="sRGB">
<feFlood flood-opacity="0" result="BackgroundImageFix"/>
<feColorMatrix in="SourceAlpha" type="matrix" values="0 0 0 0 0 0 0 0 0 0 0 0 0 0 0 0 0 0 127 0" result="hardAlpha"/>
<feOffset dy="4"/>
<feGaussianBlur stdDeviation="2"/>
<feColorMatrix type="matrix" values="0 0 0 0 1 0 0 0 0 1 0 0 0 0 1 0 0 0 1 0"/>
<feBlend mode="normal" in2="BackgroundImageFix" result="effect1_dropShadow_2_369"/>
<feBlend mode="normal" in="SourceGraphic" in2="effect1_dropShadow_2_369" result="shape"/>
</filter>
<filter id="filter12_d_2_369" x="105.686" y="15.0512" width="24.5322" height="23.0896" filterUnits="userSpaceOnUse" color-interpolation-filters="sRGB">
<feFlood flood-opacity="0" result="BackgroundImageFix"/>
<feColorMatrix in="SourceAlpha" type="matrix" values="0 0 0 0 0 0 0 0 0 0 0 0 0 0 0 0 0 0 127 0" result="hardAlpha"/>
<feOffset dy="4"/>
<feGaussianBlur stdDeviation="2"/>
<feColorMatrix type="matrix" values="0 0 0 0 1 0 0 0 0 1 0 0 0 0 1 0 0 0 1 0"/>
<feBlend mode="normal" in2="BackgroundImageFix" result="effect1_dropShadow_2_369"/>
<feBlend mode="normal" in="SourceGraphic" in2="effect1_dropShadow_2_369" result="shape"/>
</filter>
<filter id="filter13_d_2_369" x="70.4482" y="1.28828" width="47.9874" height="38.7822" filterUnits="userSpaceOnUse" color-interpolation-filters="sRGB">
<feFlood flood-opacity="0" result="BackgroundImageFix"/>
<feColorMatrix in="SourceAlpha" type="matrix" values="0 0 0 0 0 0 0 0 0 0 0 0 0 0 0 0 0 0 127 0" result="hardAlpha"/>
<feOffset dy="4"/>
<feGaussianBlur stdDeviation="2"/>
<feColorMatrix type="matrix" values="0 0 0 0 1 0 0 0 0 1 0 0 0 0 1 0 0 0 1 0"/>
<feBlend mode="normal" in2="BackgroundImageFix" result="effect1_dropShadow_2_369"/>
<feBlend mode="normal" in="SourceGraphic" in2="effect1_dropShadow_2_369" result="shape"/>
</filter>
<filter id="filter14_d_2_369" x="49.502" y="15.1834" width="24.6064" height="19.3787" filterUnits="userSpaceOnUse" color-interpolation-filters="sRGB">
<feFlood flood-opacity="0" result="BackgroundImageFix"/>
<feColorMatrix in="SourceAlpha" type="matrix" values="0 0 0 0 0 0 0 0 0 0 0 0 0 0 0 0 0 0 127 0" result="hardAlpha"/>
<feOffset dy="4"/>
<feGaussianBlur stdDeviation="2"/>
<feColorMatrix type="matrix" values="0 0 0 0 1 0 0 0 0 1 0 0 0 0 1 0 0 0 1 0"/>
<feBlend mode="normal" in2="BackgroundImageFix" result="effect1_dropShadow_2_369"/>
<feBlend mode="normal" in="SourceGraphic" in2="effect1_dropShadow_2_369" result="shape"/>
</filter>
<filter id="filter15_d_2_369" x="41.7602" y="6.14961" width="23.0523" height="28.4607" filterUnits="userSpaceOnUse" color-interpolation-filters="sRGB">
<feFlood flood-opacity="0" result="BackgroundImageFix"/>
<feColorMatrix in="SourceAlpha" type="matrix" values="0 0 0 0 0 0 0 0 0 0 0 0 0 0 0 0 0 0 127 0" result="hardAlpha"/>
<feOffset dy="4"/>
<feGaussianBlur stdDeviation="2"/>
<feColorMatrix type="matrix" values="0 0 0 0 1 0 0 0 0 1 0 0 0 0 1 0 0 0 1 0"/>
<feBlend mode="normal" in2="BackgroundImageFix" result="effect1_dropShadow_2_369"/>
<feBlend mode="normal" in="SourceGraphic" in2="effect1_dropShadow_2_369" result="shape"/>
</filter>
<filter id="filter16_d_2_369" x="35.1777" y="11.0666" width="21.6748" height="23.5303" filterUnits="userSpaceOnUse" color-interpolation-filters="sRGB">
<feFlood flood-opacity="0" result="BackgroundImageFix"/>
<feColorMatrix in="SourceAlpha" type="matrix" values="0 0 0 0 0 0 0 0 0 0 0 0 0 0 0 0 0 0 127 0" result="hardAlpha"/>
<feOffset dy="4"/>
<feGaussianBlur stdDeviation="2"/>
<feColorMatrix type="matrix" values="0 0 0 0 1 0 0 0 0 1 0 0 0 0 1 0 0 0 1 0"/>
<feBlend mode="normal" in2="BackgroundImageFix" result="effect1_dropShadow_2_369"/>
<feBlend mode="normal" in="SourceGraphic" in2="effect1_dropShadow_2_369" result="shape"/>
</filter>
<filter id="filter17_d_2_369" x="27.1473" y="11.8273" width="20.1724" height="22.7324" filterUnits="userSpaceOnUse" color-interpolation-filters="sRGB">
<feFlood flood-opacity="0" result="BackgroundImageFix"/>
<feColorMatrix in="SourceAlpha" type="matrix" values="0 0 0 0 0 0 0 0 0 0 0 0 0 0 0 0 0 0 127 0" result="hardAlpha"/>
<feOffset dy="4"/>
<feGaussianBlur stdDeviation="2"/>
<feColorMatrix type="matrix" values="0 0 0 0 1 0 0 0 0 1 0 0 0 0 1 0 0 0 1 0"/>
<feBlend mode="normal" in2="BackgroundImageFix" result="effect1_dropShadow_2_369"/>
<feBlend mode="normal" in="SourceGraphic" in2="effect1_dropShadow_2_369" result="shape"/>
</filter>
<filter id="filter18_d_2_369" x="0.332031" y="1.25117" width="59.0196" height="35.991" filterUnits="userSpaceOnUse" color-interpolation-filters="sRGB">
<feFlood flood-opacity="0" result="BackgroundImageFix"/>
<feColorMatrix in="SourceAlpha" type="matrix" values="0 0 0 0 0 0 0 0 0 0 0 0 0 0 0 0 0 0 127 0" result="hardAlpha"/>
<feOffset dy="4"/>
<feGaussianBlur stdDeviation="2"/>
<feColorMatrix type="matrix" values="0 0 0 0 1 0 0 0 0 1 0 0 0 0 1 0 0 0 1 0"/>
<feBlend mode="normal" in2="BackgroundImageFix" result="effect1_dropShadow_2_369"/>
<feBlend mode="normal" in="SourceGraphic" in2="effect1_dropShadow_2_369" result="shape"/>
</filter>
</defs>
</svg>
